<svg xmlns="http://www.w3.org/2000/svg" width="302" height="355" fill="red">
  <style>
    path {
      <!-- bg-gray-950 -->
      fill: #131316;
    }
    @media (prefers-color-scheme: dark) {
      path {
        <!-- bg-gray-300 -->
        fill: #D4D4D8;
      }
    }
  </style>
  <path
    d="M170.693 53.608c.289-.15.494-.045.478.25-.017.291-.239.502-.519.486-.294-.016-.485-.115-.477-.25.007-.128.214-.327.518-.486Zm-9.631-31.76c.12-.405.364-1.701.556-2.923.186-1.186.752-3.256 1.233-4.503.481-1.253.773-2.656.636-3.064-.152-.45-.053-.616.244-.409.258.181.469.026.437-.319-.035-.365.371-1.528.904-2.58a770.05 770.05 0 0 1 1.822-3.587c.464-.91.92-2.076.995-2.55.174-1.077 1.889-2.236 2.766-1.875 1.019.42 2.432-.989 4.197-4.183.895-1.625 2.304-3.638 3.184-4.546 2.163-2.241 4.376-4.189 4.742-4.168.191.01.467-.365.619-.85.338-1.063 3.887-2.78 4.921-2.375.383.146.567.084.388-.135-.392-.483 2.926-2.012 4.656-2.14.683-.05 2.679-.408 4.468-.798 3.774-.826 11.098-.561 15.463.564 1.6.41 3.569.864 4.372 1 .826.146 1.773.391 2.18.563.401.173 2.445.76 4.576 1.31 2.134.554 4.076 1.177 4.35 1.4.276.217 1.46.735 2.665 1.156 2.316.82 9.936 5.298 11.433 6.727.512.486 1.244.906 1.62.927.393.021.75.212.837.441.084.222 1.195 1.08 2.523 1.95 2.327 1.517 3.546 2.593 3.518 3.106-.007.13.568.942 1.255 1.764.705.846 2.286 2.83 3.563 4.477 1.279 1.642 2.688 3.368 3.178 3.89.496.52 1.198 1.49 1.599 2.204.393.687 1.59 2.667 2.639 4.349 1.046 1.68 1.907 3.302 1.892 3.572-.015.265.413.98.921 1.548.535.597 1.282 1.693 1.707 2.509.423.807 1.402 2.485 2.224 3.81.821 1.324 1.462 2.456 1.456 2.565-.02.358 5.516 9.64 5.942 9.965.242.186.47.619.531 1.017.213 1.385.88 2.707 1.91 3.772.603.633 1.055 1.359 1.038 1.675-.016.295.155.575.361.587.213.011.725.654 1.127 1.415.408.776 1.304 2.088 2.024 2.965.701.851 1.618 2.373 2.009 3.331.925 2.267 2.479 7.11 2.471 7.714-.001.27.366 1.393.82 2.505.453 1.106.807 2.51.788 3.116-.02.586.168 1.112.403 1.125.736.04 1.602 6.433 1.431 10.558-.085 2.06-.172 4.058-.191 4.39-.018.336-.337 1.826-.699 3.283a344.41 344.41 0 0 0-.889 3.638c-.125.534-.287 1.082-.362 1.213-.075.125-.18.48-.234.77-.237 1.267-2.892 3.963-4.096 4.157-1.662.27-3.884 2.239-4.381 3.884-.204.677-.621 1.529-.903 1.845-.294.325-.404.721-.25.894.502.568-9.074 4.964-11.098 5.095-1.596.104-6.9-.63-9.42-1.303-.401-.108-1.6-.42-2.668-.697-1.065-.275-2.151-.656-2.412-.845-.262-.192-1.436-.684-2.644-1.106-1.214-.424-3.224-1.251-4.567-1.875-1.344-.625-3.036-1.33-3.847-1.602-2.153-.724-12.297-5.302-17.276-7.795-.534-.27-2.016-.907-3.361-1.45-1.337-.538-3.744-1.676-5.416-2.562-1.673-.886-3.208-1.6-3.451-1.614-.884-.05-9.091-4.601-9.067-5.031.013-.228-.298-.407-.74-.431-.423-.023-1.841-.918-3.207-2.023-1.365-1.105-3.08-2.339-3.878-2.794-.811-.466-1.586-1.096-1.789-1.456-.204-.36-.653-.65-1.046-.672-.687-.038-4.115-2.968-6.433-5.5-.65-.706-1.375-1.323-1.574-1.334-.199-.01-.826-.54-1.375-1.157-2.246-2.538-3.995-4.06-4.704-4.098-.391-.022-.722-.269-.707-.534.043-.782-5.567-6.74-6.086-6.456-.274.145-.426.09-.377-.146.167-.823-.026-1.603-.565-2.242a173.56 173.56 0 0 1-2.239-2.808c-.929-1.178-1.838-1.999-2.038-1.832-.216.18-.281.108-.161-.181.111-.264-.758-2.107-1.952-4.139-3.854-6.557-6.288-15.578-5.673-21.02.11-.978-.054-1.58-.438-1.6-.393-.023-.429-.154-.103-.376.274-.178.61-.678.723-1.062Zm-5.107 8.667c.312 1.047.465 1.893.344 1.886-.126-.007-.004.442.285 1.05.279.584.855 2.653 1.278 4.596 1.472 6.769 4.903 13.646 9.338 18.712 1.718 1.967 3.11 3.765 3.097 4.009-.013.243.294.458.687.48.39.021 1.625 1.297 2.746 2.834 1.117 1.535 2.172 2.664 2.343 2.512.186-.166.301-.097.286.167-.035.638 2.014 3.258 2.572 3.288.25.014 1.047.656 1.837 1.48 1.183 1.235 4.792 4.076 7.871 6.203.419.289 2.503 1.843 4.675 3.498 3.981 3.023 9.961 6.64 17.799 10.756 2.39 1.258 5.36 2.88 6.683 3.652 2.484 1.451 4.833 2.461 8.216 3.534 1.112.352 2.865 1.066 3.872 1.581 1.004.511 2.064.973 2.328 1.014.269.042 2.373 1.113 4.665 2.372 2.292 1.261 4.4 2.309 4.667 2.324.294.016.481.195.467.444-.012.221.541.448 1.178.483.668.037 1.96.578 2.909 1.22.949.64 2.033 1.169 2.442 1.191.401.022 1.211.339 1.781.697 1.203.755 1.141.731 5.154 1.953 1.972.6 5.155 1.067 8.538 1.254 6.424.356 8.078.24 8.651-.603.224-.332.681-.431.984-.217.331.235 1.487-.186 2.762-1.002 1.224-.783 2.345-1.395 2.538-1.385.684.038 5.183-2.91 6.919-4.535.993-.928 2.679-2.067 3.671-2.476 1.612-.667 1.812-.928 1.643-2.123-.12-.843.076-1.612.514-2.014.603-.55 1.966-3.628 2.168-4.897.031-.19.379-1.131.794-2.143.414-1.012.738-2.347.734-3.034-.003-.686.232-1.65.534-2.185.592-1.05 1.48-12.95.967-12.979-.278-.015-.647-2.443-.85-5.606-.049-.741-.346-1.714-.64-2.1-.315-.413-.391-.942-.179-1.237.203-.285.044-1.08-.346-1.74-.389-.662-.694-1.683-.664-2.226.03-.54-.383-1.316-.891-1.673-.519-.366-.929-.997-.906-1.401.023-.42-.316-1.396-.785-2.259-.469-.863-.931-2.11-1.071-2.888-.15-.845-.57-1.384-1.101-1.413-.637-.035-.688-.142-.199-.417.84-.468-.248-2.853-2.668-5.842-.96-1.181-1.7-2.325-1.685-2.6.027-.476-1.745-3.684-7.029-12.733-1.544-2.645-2.814-4.951-2.807-5.095.009-.15-.512-.991-1.153-1.864-1.336-1.817-3.035-4.541-4.157-6.673-.422-.798-1.807-3.049-3.042-4.937a587.865 587.865 0 0 1-4.686-7.316c-1.344-2.14-2.646-3.86-2.933-3.875-.295-.016-.362-.17-.157-.352.458-.417-8.855-10.553-10.62-11.56-.801-.455-2.281-1.447-3.367-2.261-2.503-1.87-8.488-5.055-10.939-5.821-2.05-.638-7.452-2.227-10.649-3.126-2.314-.654-7.685-1.548-11.452-1.907a1813.3 1813.3 0 0 1-5.382-.522c-3.521-.35-10.094.762-12.559 2.13-3.349 1.858-6.352 3.237-6.965 3.203-.968-.054-5.657 2.932-7.956 5.067-5.105 4.736-5.785 5.598-5.31 6.742.061.138-.553.604-1.414 1.066-2.841 1.527-7.982 6.475-8.052 7.75-.022.394-.256.804-.546.958-.724.382-1.888 2.699-4.091 8.13-3.587 8.856-4.952 16.545-3.686 20.801Z"
  />
  <path
    d="M189.062 19.116c.364-1.789 1.039-2.646 4.675-5.94 3.735-3.382 5.566-4.565 8.512-5.494a12.084 12.084 0 0 0 1.512-.634c2.279-1.19 10.137-2.086 11.878-1.355.135.059 1.316.233 2.684.403 2.931.354 5.216.876 7.77 1.766 1.063.365 2.04.7 2.173.739 3.873 1.134 9.519 4.671 12.597 7.893 7.052 7.38 10.089 16.32 8.991 26.494-.539 4.983-2.374 8.85-6.187 13.033-1.322 1.45-2.443 2.87-2.456 3.109-.014.243-.656.723-1.411 1.055-.774.342-2.639 1.466-4.223 2.545-1.584 1.082-3 1.924-3.204 1.912-.201-.01-1.675.49-3.234 1.1-2.484.972-3.255 1.059-5.789.633-4.677-.78-14.318-4.754-16.157-6.661-1.628-1.691-3.85-3.13-4.511-2.923-.399.124-.643.074-.565-.114.131-.336-4.569-5.765-5.011-5.79-1.063-.058-4.424-5.455-5.767-9.268-.655-1.856-1.388-3.545-1.606-3.704-.217-.156-.494-1.45-.605-2.835-.159-1.98-.308-2.336-.673-1.613-.313.623-.354.204-.128-1.26.192-1.217.262-3.626.16-5.4-.189-3.329-.117-4.286.575-7.69Zm-23.441 12.376c.668.365 14.08 1.283 14.599 1 .225-.118 1.086-.05 1.912.157 1.065.273 1.487.664 1.448 1.36-.085 1.54 2.52 8.402 3.854 10.15 2.272 2.976 4.658 6.981 4.332 7.27-.169.153-1.249-.09-2.357-.525-1.108-.431-3.003-.831-4.134-.868-1.129-.03-2.077-.198-2.068-.359.019-.353-8.18-.623-9.231-.302-.355.111-.604.57-.548 1.015.088.711.984.876 6.964 1.27 13.379.874 12.128.555 15.011 3.809 1.423 1.602 2.437 3.099 2.275 3.345-.179.27-.466.337-.723.172-.73-.482-2.411-.872-5.585-1.297-10.351-1.393-10.351-1.393-10.736-.53-.407.913.446 2.338 1.166 1.947.492-.27 5.115-.009 13.09.734 4.501.42 4.573.445 6.555 2.426 2.984 2.984 3.578 3.47 6.024 4.93 2.14 1.283 3.138 2.623 1.327 1.79-2.399-1.105-16.462-2.89-17.632-2.238-.379.212-.591.747-.457 1.15.208.615 1.381.82 6.528 1.12 3.431.206 8.933.67 12.142 1.026 7.087.79 14.136 1.229 16.174 1.007.822-.089 2.541-.623 3.854-1.195 7.761-3.393 9.172-4.08 10.108-4.918.517-.46 1.195-.728 1.432-.56.258.186.465.026.487-.363.021-.374 1.176-1.676 2.52-2.845 8.252-7.173 12.058-18.383 9.526-28.065-1.409-5.393-1.873-6.766-3.415-10.127-1.994-4.338-3.872-7.135-6.923-10.31-2.697-2.812-9.199-7.94-10.131-7.991-.353-.02-1.259-.402-2.019-.85-3.583-2.107-17.075-4.308-22.178-3.624-.842.114-2.017.164-2.713.12-1.477-.096-12.034-1.149-17.216-1.716-3.178-.348-3.911-.29-4.399.36-.549.734-.564.733-.266-.04.278-.724.018-.801-2.25-.666-1.431.086-2.772.32-3.03.53-1.304 1.045.661 1.378 10.67 1.8 5.79.247 10.541.635 10.528.864-.012.228-.441.397-.93.37-.497-.028-2.465.981-4.354 2.239l-3.448 2.296-10.082-.46c-7.652-.349-10.142-.316-10.334.142-.192.452.362.57 2.233.493 1.382-.06 2.61.118 2.759.396.146.28.757.536 1.345.569.881.049.949-.046.373-.52-.564-.468-.513-.492.254-.137 1.037.485 9.05.885 10.986.55l1.242-.217-1.017 1.05a97.692 97.692 0 0 1-1.668 1.678c-.358.348-.666.95-.687 1.338-.022.395-.261.7-.531.684-.257-.014-.514.414-.541.906-.091 1.644-1.185 1.864-7.711 1.57-3.533-.157-6.597-.286-6.869-.285-.26-.003-.875-.184-1.308-.384-.819-.378-.868-.303-.972 1.563-.01.186 1.599.432 3.611.543 2.01.111 3.538.029 3.428-.18-.115-.22.021-.368.313-.352a.534.534 0 0 1 .487.568c-.03.544 5.814.675 6.778.152.877-.478 1.081.527.429 2.113-.616 1.506-.68 1.528-2.622 1.061-2.474-.588-13.935-1.315-14.653-.924-.314.17-.449.657-.308 1.107.219.703 1.258.823 8.38.978l8.132.179-.133 2.405-.133 2.4-4.258-.386c-9.886-.9-10.966-.944-11.482-.483-1.419 1.268.105 1.65 7.86 1.942 8.686.334 7.86-.054 8.305 3.918.172 1.533.092 1.647-.897 1.303-.598-.206-3.287-.599-5.976-.873-2.692-.267-5.504-.626-6.252-.793-1.896-.421-4.279.01-4.321.776-.022.394.002.708.057.742Z"
  />
  <path
    d="M168.873 37.574c.931.077 1.992.204 2.322.274.323.07 1.132-.02 1.732-.195.65-.193 1.113-.126 1.097.154-.017.316.426.341 1.228.067.702-.236 1.241-.238 1.228-.004-.012.223.496.39 1.088.357.613-.034 2.264-.022 3.686.032 1.425.052 2.59-.107 2.603-.35.035-.628-4.839-1.454-11.063-1.87-4.996-.34-5.541-.287-5.585.507-.038.684.343.919 1.664 1.028ZM168.289 42.83c.273.52 2.512.82 9.519 1.266 11.226.714 11.938.362 3.085-1.504-3.841-.81-11.962-1.339-12.546-.82-.215.192-.243.7-.058 1.059ZM186.684-6.57c.728.191 2.553.531 4.016.759 3.512.537 18.077 2.7 21.464 3.183 4.295.618 8.021 1.265 8.282 1.446.132.09 1.749.388 3.651.67C228.731.185 230.723.582 231.2.91c.255.174.435.118.45-.147.025-.452-1.468-1.023-4.335-1.66-.679-.152-2.276-.64-3.627-1.116-1.311-.463-3.562-.966-4.931-1.11-1.368-.142-2.407-.423-2.277-.619.13-.191-.396-.4-1.131-.452a32.522 32.522 0 0 1-2.831-.37c-4.139-.77-6.644-.966-6.941-.54-.235.33-.414.32-.602-.034-.148-.284-2.22-.767-4.661-1.095-2.441-.327-4.5-.66-4.632-.745-.132-.09-1.748-.409-3.649-.72-1.9-.309-3.842-.63-4.386-.717-1.025-.165-2.236.422-2.274 1.112-.012.211.584.547 1.311.732ZM206.56 77.823c.527.248.925.16 1.071-.238.142-.382.343-.439.523-.143.182.303 1.38.405 3.158.275 1.585-.115 5.448-.21 8.645-.21 3.195 0 6.866-.03 8.217-.065 1.337-.03 5.141-.048 8.436-.033 8.654.037 9.991-.508 1.912-.784-9.917-.334-14.589-.634-15.046-.961-.223-.158-.632-.14-.987.039-.334.174-3.16.226-6.301.119-8.984-.298-10.039-.222-10.263.738-.114.483.17 1.045.635 1.263ZM214.053 82.418c.311.46 1.037.812 1.533.751.513-.065 3.057-.149 5.617-.183 2.559-.037 5.459-.12 6.404-.188.958-.072 3.157-.168 4.928-.22 1.775-.048 3.755-.163 4.441-.244.69-.087 2.765-.17 4.683-.183 1.884-.021 5.119-.06 7.138-.1 2.031-.033 5.781-.06 8.339-.054 2.556.007 4.762-.094 4.906-.222.296-.265-.375-.348-3.615-.449-1.35-.045-5.547-.182-9.328-.303-8.298-.267-19.312-.387-22.364-.243-1.212.057-4.555.096-7.359.087-2.801-.004-5.315.148-5.527.332-.205.188-.109.76.204 1.219ZM226.084 88.996c.148.16.923.15 1.673-.022 1.37-.32 5.83-.488 13.553-.514 18.545-.072 27.434-.413 28.833-1.115.723-.366-9.31-.63-10.706-.286-.349.086-.588-.037-.573-.296.012-.233-.277-.359-.625-.269-1.154.31-7.006.388-14.371.194-9.577-.255-16.986-.233-17.513.05-.508.274-.691 1.804-.271 2.258ZM242.369 94.951c.333.51.868.773 1.206.59.817-.44 2.094-.517 8.438-.507 7.475.013 10.177-.12 15.535-.762 2.475-.297 5.274-.512 6.296-.482 1.032.03 1.852-.12 1.864-.34.012-.213-2.705-.43-5.997-.48-3.294-.046-7.178-.138-8.572-.202-2.208-.102-2.522 0-2.33.757.166.648.114.703-.206.209-.33-.505-1.711-.67-5.791-.688-2.951-.015-6.485-.089-7.86-.165-2.746-.152-3.587.522-2.583 2.07ZM251.87 23.8c1.667.977 15.475 3.238 15.061 2.472-.251-.461-4.668-1.865-6.815-2.161-.538-.077-1.343-.324-1.79-.55-.454-.234-1.744-.508-2.915-.63-1.175-.117-2.355-.391-2.674-.612-.643-.45-1.616-.114-1.654.57-.013.233.357.665.787.911ZM256.659 102.617c1.936-.49 5.465-1 7.537-1.091 3.5-.154 5.704-.502 6.017-.953.425-.607-11.428-.807-13.183-.222-1.804.602-2.152 2.716-.371 2.266ZM260.123 39.094c1.507.04 7.941 1.36 10.359 2.122 2.272.718 7.06 1.254 7.086.792.026-.471-1.855-1.107-4.345-1.467-1.218-.177-2.513-.477-2.913-.677-.956-.473-.956-.473-3.386-1.023-1.214-.27-2.829-.713-3.634-.997-3.908-1.355-4.104-1.355-4.179-.002-.052.933.191 1.232 1.012 1.252ZM264.469 49.413c.689.266 4.08.974 6.468 1.345 1.805.282 5.96 1.162 7.293 1.543.524.148 1.8.39 2.774.522.977.131 2.023.403 2.279.578.697.491.665-.452-.036-1.109-.717-.67-4.233-1.721-8.562-2.57-6.132-1.201-7.073-1.431-7.522-1.84-.263-.24-1.004-.529-1.685-.665-.975-.19-1.259-.018-1.427.857-.109.587.085 1.21.418 1.339ZM263.303 82.094c.392.022.747-.178.761-.427.014-.249-.325-.36-.724-.236-.401.123-.758.321-.763.425-.006.104.333.216.726.238ZM270.141 58.93c1.439.19 2.584.408 8.615 1.647 3.207.66 6.168 1.184 6.575 1.165a24.422 24.422 0 0 1 1.817.027c.735.04 1.006-.178.851-.691-.13-.424-.794-.783-1.53-.824-.72-.04-3.677-.64-6.638-1.35-2.961-.71-6.168-1.354-7.199-1.453-1.028-.1-1.958-.358-2.079-.583-.369-.68-1.184-.014-1.24 1.013-.03.54.318.979.828 1.05ZM271.713 100.755c1.373.076 2.624-.343 2.655-.887.029-.531-2.446-.187-3.221.448-.285.235-.072.403.566.439ZM287.36 71.276c.395.173.281.276-.309.274-.492 0-.787-.131-.624-.279.167-.152.597-.148.933.005Zm-12.696-1.632c1.637.625 5.266.889 5.83.42.463-.385.53-.37.266.057-.236.387.404.72 1.96 1.019 1.265.246 3.302.666 4.499.924 2.723.593 4.854.305 3.914-.527-.356-.316-1.433-.75-2.357-.946-.924-.198-2.032-.461-2.427-.576-.436-.13-.693.08-.643.53.065.602-.025.586-.489-.079-.316-.454-1.664-1.033-3.027-1.296a411.943 411.943 0 0 1-3.916-.793c-3.256-.7-3.825-.67-4.037.203-.106.436.096.941.427 1.064ZM198.041 23.94c.645-.849 1.706-2.09 2.333-2.727 1.75-1.77 5.665-9.01 5.55-10.265-.062-.69-.512-1.22-1.149-1.343-.921-.18-1.103.09-1.524 2.23-.285 1.445-1.668 4.48-3.408 7.482-3.067 5.29-3.864 7.333-1.802 4.622ZM203.623 26.442c1.064-.59 2.547-1.616 3.209-2.214 1.335-1.206 4.737-5.906 4.928-6.81.062-.288.434-.886.819-1.306.388-.422.782-1.705.87-2.829.148-1.858.047-2.062-1.062-2.123-1.09-.06-1.277.174-1.668 2.118-.645 3.214-5.249 10.5-7.735 12.245-2.032 1.433-1.543 2.131.639.92ZM210.252 31.942c.296.016.503-.17.519-.46.014-.265.37-.474.763-.452.392.022.746-.151.758-.375.012-.222.603-.684 1.259-.99.684-.316 1.615-1.263 2.086-2.12.469-.86 1.004-1.614 1.199-1.688.596-.227 5.571-9.13 5.622-10.058.087-1.57-.412-2.233-1.557-2.078-.954.13-1.21.547-1.571 2.545-.481 2.677-2.971 7.928-4.337 9.152-.5.446-1.057 1.267-1.286 1.894-.228.622-1.18 1.75-2.159 2.565-1.803 1.49-2.136 2.018-1.296 2.065ZM217.699 36.93c.522.58 6.115-4.878 8.966-8.75 2.917-3.974 3.803-6.03 3.983-9.276.1-1.815-.034-2.102-1.122-2.423-.675-.199-1.374-.238-1.543-.085-.171.157-.438 1.774-.592 3.586-.154 1.811-.33 3.544-.388 3.838-.115.58-3.277 5.013-3.863 5.413-.165.115-.826 1.087-1.445 2.141-.619 1.046-1.864 2.626-2.729 3.463-1.684 1.628-1.684 1.628-1.267 2.093ZM220.513 53.637c.734.089 3.367-1.274 3.393-1.756.016-.281.322-.477.714-.455.389.022 1.353-.455 2.225-1.104.872-.649 1.731-1.137 1.981-1.123.486.027 6.34-5.255 6.367-5.748.011-.192.579-.998 1.298-1.842 2.521-2.96 5.701-10.99 4.823-12.178-1.317-1.783-3.378-.04-3.546 3.003-.148 2.674-1.638 5.811-4.698 9.87-2.598 3.444-8.749 8.965-11.982 10.752-.508.28-.78.555-.575.581ZM224.271 40.393c.969-.654 1.916-1.174 2.103-1.163.385.021 4.332-3.599 4.354-3.993.007-.129.516-.855 1.095-1.562.578-.706 1.155-1.632 1.24-1.995.087-.37.572-1.446 1.06-2.35 1.181-2.196 2.71-7.256 2.445-8.08-.119-.367-.701-.68-1.339-.715-1-.055-1.178.257-1.578 2.743-.25 1.56-.498 3.07-.558 3.41-.06.341-.289.599-.522.586-.224-.013-.439.319-.461.713-.095 1.732-4.08 7.939-6.709 10.45-1.558 1.485-2.877 2.831-2.883 2.94-.006.11.781-.336 1.753-.984ZM227.662 60.45c.212.012 1.218-.681 2.198-1.515 12.85-10.918 13.679-11.844 15.574-17.424.459-1.353.975-2.857 1.169-3.425.218-.627.051-1.35-.436-1.896-1.265-1.41-2.517-.384-3.083 2.534-.274 1.415-.847 3.25-1.294 4.161-.448.906-.686 1.84-.535 2.107.156.28-.058.591-.509.737-.45.147-.785.424-.798.668-.013.229-.732 1.114-1.584 1.951-.852.843-1.718 1.98-1.909 2.505-.192.53-.733 1.297-1.201 1.702-.476.416-1.553 1.438-2.439 2.325-.861.858-2.497 2.494-3.568 3.568-1.07 1.068-1.796 1.99-1.585 2.002ZM111.506 292.7c.324.22.601.761.572 1.106-.028.344.172.757.416.862.495.222-3.078 11.793-4.166 13.532-.279.422-.571 1.576-.654 2.496-.276 3.231-1.986 4.94-3.2 3.183-.275-.403-.992-.849-1.567-.976-1.215-.29-1.192-.59.314-4.304.579-1.439 1.137-3.207 1.224-3.919.091-.727.313-1.174.506-1.039.198.147.393-.235.448-.867.052-.645.485-1.745.999-2.535.507-.773 1.43-2.935 2.084-4.845 1.337-3.926 1.955-5.028 2.218-3.909.094.404.471.97.806 1.215Zm3.312-7.312c.664.923.325 4.467-.663 6.887-.05.141-.286-.665-.516-1.767-.295-1.402-.734-2.075-1.459-2.239-.884-.198-.961-.426-.513-1.53.301-.724.733-1.907 1-2.717.449-1.398.486-1.41 1.043-.411.318.571.815 1.365 1.108 1.777Zm1.792-10.05c-.029.345.391 1.457.923 2.45 1.066 1.971.968 3.721-.31 5.728l-.828 1.322-.188-1.87c-.106-1.042-.39-2.015-.649-2.2-.911-.664-1.095-2.661-.402-4.373.673-1.664 1.56-2.319 1.454-1.057Zm4.226-7.947c.314-.141.407-.044.206.215-.2.272-.097 1.301.236 2.315.633 1.939.227 4.498-1.027 6.512-.629 1.007-.736.859-1.702-2.429-.818-2.79-.902-3.769-.434-4.754.322-.66.474-1.239.33-1.25-.15-.009.017-.466.383-1.028.578-.88.698-.903 1.052-.148.211.451.65.719.956.567Zm3.238-5.654c.859 2.134.859 2.316-.006 3.984-.878 1.7-2.254 2.034-1.833.435.114-.427-.085-1.455-.454-2.331-.404-.963-.482-1.945-.204-2.605.409-.953.512-1.208.761-1.999.193-.62.875.368 1.736 2.516Zm2.103-9.434c1 4.074 1.179 5.499.837 6.668-.541 1.846-1.181 1.628-1.896-.649-.316-1.019-.755-1.999-.958-2.16-.447-.334.913-4.841 1.449-4.799.193.023.442.434.568.94Zm1.012-8.464c-.012.13-.224.322-.532.474-.297.135-.497.03-.474-.27.027-.288.253-.499.534-.475.296.033.48.129.472.271Zm57.775-134.278c.657.055.812.44.671 1.659-.101.878-.346 1.792-.548 2.048-.193.249-.601 1.453-.885 2.61-.284 1.158-.728 2.483-.961 2.875-.233.399-.827 1.925-1.297 3.365-.484 1.465-1.652 4.539-2.638 6.921-.985 2.38-1.802 4.663-1.842 5.141-.043.489-.294.837-.589.812-.274-.023-.473.256-.426.605.084.611-1.288 5.26-2.223 7.547-.268.649-.938 2.385-1.48 3.818-.544 1.449-2.098 5.291-3.464 8.574-1.369 3.282-2.685 6.65-2.936 7.511-.253.867-.66 1.668-.916 1.796-.257.128-.513.819-.576 1.553-.063.735-.786 2.79-1.629 4.642-.836 1.836-2.135 5.139-2.897 7.392-.766 2.25-1.615 4.182-1.901 4.321-.305.151-.513.381-.518.571.002.176-.113.609-.248.943-.331.816-2.22 5.181-2.614 6.031-.18.378-.362.826-.4.95-.035.137-1.131 2.674-2.428 5.61-1.291 2.947-2.256 5.681-2.144 6.051.111.357-.079.78-.392.878-.329.117-.983 1.146-1.433 2.293-2.825 7.201-4.778 12.061-6.105 15.202-.825 1.949-1.531 3.861-1.561 4.206-.031.359-.404 1.301-.859 2.142-1.103 2.078-2.087 4.525-2.593 6.43-.236.926-.549 1.806-.7 2.022-.235.311-4.953 11.892-5.51 13.52-.787 2.3-1.898 4.521-2.245 4.49-.237-.024-.338-.173-.261-.393.07-.19-.079-1.135-.322-2.051-.343-1.304-.663-1.651-1.421-1.525-.838.151-.891 0-.379-1.041.328-.662.785-1.951 1.011-2.874.222-.894.93-2.625 1.528-3.762.605-1.126 1.086-2.255 1.049-2.439-.037-.198.258-.849.665-1.452.407-.603.637-1.415.524-1.799-.119-.41-.042-.7.178-.685.221.029 1.432-2.461 2.722-5.548 1.285-3.099 3.007-7.244 3.849-9.283.842-2.052 1.407-3.92 1.269-4.212-.133-.266.015-.494.311-.461.366.025.489-.433.358-1.328-.149-1.001-.078-1.163.25-.595.4.699.463.679.58-.098.181-1.217.272-1.497.647-2.019.832-1.155 3.091-7.564 2.904-8.218-.119-.41-.038-.589.187-.436.219.155 1.307-1.905 2.412-4.571 1.108-2.666 2.398-5.656 2.862-6.626.47-.999.819-1.947.796-2.15-.019-.203.116-.707.292-1.083.185-.393 1.517-3.624 2.947-7.147 1.439-3.526 2.975-7.18 3.405-8.089.436-.922 1.293-3.144 1.931-5.011.639-1.86 2.077-5.243 3.238-7.607 1.16-2.366 2.454-5.322 2.91-6.653.46-1.341 1.235-3.444 1.764-4.778 2.736-6.912 4.273-11.341 4.065-11.728-.129-.246-.029-.465.261-.545.262-.072 1.207-2.162 2.096-4.65.89-2.486 1.883-4.641 2.207-4.789.31-.14.541-.368.486-.475-.058-.113.205-.971.58-1.874.372-.91.878-2.514 1.114-3.529.233-1.014.794-2.411 1.238-3.071 1.242-1.866 2.855-6.579 2.606-7.616-.157-.654-.104-.718.193-.23.294.484.65.105 1.246-1.324.458-1.092.903-1.735.986-1.418.081.332.513.612 1.003.654Zm-2.622-3.675c-.409.219-.88.263-1.093.105-.221-.167-.342-.118-.303.122.153.948-1.304 5.95-2.561 8.801-.753 1.707-2.025 4.903-2.844 7.151-.818 2.244-1.699 4.297-1.972 4.586-.264.285-.654 1.054-.855 1.677-.97 3.034-1.694 4.981-4.048 10.89-3.425 8.58-4.451 11.302-5.149 13.606-.317 1.065-1.417 3.725-2.46 5.952-1.991 4.257-4.365 9.928-5.976 14.275-.532 1.434-1.192 3.058-1.454 3.573-.511 1.01-2.499 5.948-3.647 9.054-1.427 3.873-4.696 12.01-5.839 14.534-2.016 4.46-2.856 6.652-2.558 6.684.171.017.027.243-.347.556-.354.307-.672 1.007-.722 1.596-.052.575-.662 2.15-1.366 3.53-1.062 2.08-1.165 2.559-.622 2.976.527.407.5.486-.134.433-.868-.077-1.845 2.004-1.378 2.933.158.314.065.399-.201.203-.293-.216-1.037 1.121-1.877 3.368-2.396 6.397-2.993 7.855-5.326 12.946-1.258 2.756-2.342 5.345-2.42 5.789-.08.43-.401 1.076-.714 1.411-.324.353-.742 1.253-.972 2.066-.42 1.501-1.754 5.077-4.608 12.315-.901 2.295-1.536 4.422-1.401 4.687.157.3.081.477-.179.461-.817-.079-5.978 11.655-6.434 14.634-.112.72-.471 1.503-.81 1.749-.326.242-.938 1.65-1.336 3.088-1.161 4.192-2.873 9.117-4.152 11.963-.637 1.429-1.329 3.155-1.518 3.815-.192.661-1.308 3.344-2.484 5.949-1.17 2.616-2.244 5.216-2.393 5.78-.137.574-.56 1.517-.933 2.067-1.502 2.287-1.796 3.763-.866 4.366.502.317 1.371.604 2.01.669.618.044 1.736.476 2.481.955 2.291 1.448 3.622 1.547 5.979.418 1.232-.596 2.187-1.203 2.165-1.378-.023-.174.198-1.194.48-2.204.381-1.349.362-2.028-.066-2.397-.439-.379-.378-.426.24-.173.525.213.875.061.953-.397.166-.988.254-1.211 1.248-3.045.764-1.414 1.732-4.162 1.965-5.591.035-.22.27-.727.548-1.136.258-.402.652-1.378.85-2.097.753-2.737 4.728-14.392 6.38-18.683.314-.811.595-1.64.642-1.92.051-.268.608-1.518 1.258-2.839.646-1.335 1.428-3.215 1.768-4.285.643-2.046.77-2.408 2.328-6.459.554-1.431 1.166-3.286 1.358-4.072.198-.817.562-1.853.847-2.39.273-.519.792-1.813 1.154-2.863.362-1.063 1.41-3.823 2.355-6.201.939-2.391 1.762-4.731 1.851-5.262.086-.543.31-1.075.499-1.19.185-.128 1.078-2.126 1.996-4.524 2.25-5.819 2.341-6.043 2.738-7.397a17.64 17.64 0 0 1 .681-1.919c.18-.377.403-.936.484-1.185.471-1.489 3.841-10.566 5.062-13.617.776-1.949 2.061-5.202 2.84-7.151.769-1.959 1.767-4.326 2.197-5.229.424-.902.986-2.098 1.231-2.608.246-.524.49-1.062.545-1.191.05-.127.746-1.854 1.533-3.806.787-1.951 1.811-4.242 2.257-5.053.439-.808.847-1.83.881-2.246.037-.417.558-1.656 1.18-2.787 1.565-2.819 5.361-11.835 5.834-13.84.103-.435.367-.956.564-1.11.196-.153.403-.68.439-1.12.039-.46.57-1.874 1.181-3.152.61-1.276 1.576-3.613 2.143-5.19.565-1.564 1.695-4.291 2.484-5.997.791-1.708 1.689-4.084 1.975-5.227.287-1.158.721-2.305.957-2.556.427-.452.984-1.937 1.625-4.347.145-.54.52-1.484.853-2.146.324-.642.853-2.389 1.164-3.842.312-1.453.938-3.112 1.373-3.654.44-.546.97-1.618 1.177-2.387.513-1.93 2.886-8.852 3.329-9.722.192-.378.438-.977.533-1.285.468-1.538 2.346-5.651 2.752-6.025 1.571-1.443.08-4.364-2.658-5.199-.861-.265-2.125-.834-2.774-1.252-.7-.453-1.491-.611-1.917-.387ZM141.515 312.316c.45 1.116.628 2.569.442 3.578-.289 1.557-2.715 8.941-3.457 10.501-.187.394-.455 1.149-.607 1.672-.595 2.17-1.712 3.512-3.035 3.69-.745.093-1.633-.006-1.904-.2-.586-.431.246-4.283 1.296-6.01.57-.947 1.825-4.847 1.735-5.378-.012-.08.519-1.504 1.163-3.131.651-1.615 1.002-2.997.777-3.01-.228-.027-.055-.626.385-1.323.436-.709.951-1.681 1.136-2.144.454-1.163 1.12-.603 2.069 1.755Zm1.93-7.773c.756 1.397.985 2.541.803 4.01-.314 2.432-1.137 2.396-1.607-.084-.185-.962-.609-1.961-.967-2.282-.441-.392-.489-1.048-.169-2.112.273-.855.568-1.52.678-1.512.106.008.672.893 1.262 1.98Zm2.784-5.973c.44 1.022-.174 3.827-.828 3.766-.213-.016-.594-.61-.845-1.328-.266-.755-.699-1.164-1.051-.998-.398.209-.441.013-.119-.605.253-.471.618-1.396.784-1.978.252-.862.447-.951.979-.447.346.325.859 1.072 1.08 1.59Zm2.003-9.389c-.134.126.028.69.354 1.258.907 1.561-.234 4.782-1.622 4.603-.137-.013-.589-.333-1.045-.735-.736-.649-.726-.904.109-2.996.493-1.245.903-2.435.9-2.588-.037-.896.252-1.043.86-.437.363.347.57.772.444.895Zm-1.31-2.873c-.159.218-.521.331-.86.269-.439-.072-.433-.143.021-.272.321-.086.515-.566.408-1.022-.164-.703-.114-.719.254-.107.251.424.332.93.177 1.132Zm3.848-4.112c.602 2.563.29 4.855-.652 4.773-.262-.016-.463-.386-.428-.774.037-.431-.352-.77-.943-.823-.78-.062-.919-.284-.629-.99a20.14 20.14 0 0 0 .677-1.959c.398-1.396 1.027-2.865 1.217-2.854.08.002.414 1.169.758 2.627Zm3.061-10.14c.807 1.927.811 2.344.05 4.945-.458 1.526-.982 2.822-1.152 2.806-.175-.015-.772-.639-1.316-1.376-.858-1.156-.907-1.574-.35-3.104.351-.977.782-2.691.945-3.818.34-2.356.646-2.256 1.823.547Zm5.923-28.615c-.027.288-.135.476-.264.474-.133-.014-.322-.234-.47-.537-.151-.302-.033-.493.257-.472.293.02.499.249.477.535Zm39.678-116.331c.362.625.56 1.29.43 1.468-.223.313-.442 1.096-1.401 5.056-.943 3.909-3.349 12.605-3.658 13.24-.195.394-.518 1.557-.735 2.623-.213 1.066-.493 2.057-.634 2.238-.138.18-.412 1.049-.622 1.966-1.056 4.692-1.289 5.592-1.843 7.138-.33.925-1.109 3.504-1.737 5.766-.628 2.263-1.709 5.476-2.414 7.185-.704 1.711-1.379 3.543-1.502 4.113-.527 2.345-7.381 23.817-8.407 26.333-.314.797-.79 2.301-1.048 3.36-.525 2.149-1.745 6.318-3.429 11.694-.615 1.968-1.025 3.661-.917 3.809.112.147-.175 1.173-.63 2.266-2.31 5.572-6.258 17.708-7.267 22.343-.08.388-.334 1.054-.536 1.439-.207.386-1.625 4.492-3.141 9.089-1.516 4.611-2.954 8.569-3.188 8.782-.223.196-.338.707-.242 1.054.104.372-.054 1.037-.345 1.449-.457.661-.673.491-1.523-1.213-.538-1.075-.902-2.288-.799-2.656 1.384-4.919 2.691-9.423 5.668-19.522a2551.585 2551.585 0 0 1 3.854-12.973c.165-.541.473-1.839.68-2.91.341-1.728 1.31-4.812 3.087-9.841.323-.911 1.1-3.307 1.712-5.273.614-1.967 1.537-4.897 2.029-6.477.772-2.449 1.871-6.343 2.843-10.113 1.189-4.578 2.494-9.319 2.784-10.109.196-.522 1.097-3.208 2.016-5.983.913-2.787 1.955-5.784 2.319-6.706.359-.906.776-2.222.912-2.879.142-.676.408-1.521.607-1.92.194-.391.65-1.569 1.011-2.624.36-1.045 1.118-3.109 1.667-4.54 1.545-4.007 1.675-4.408 1.984-5.991.159-.825.541-1.988.881-2.684.329-.679.852-2.293 1.17-3.598.315-1.304.743-2.573.956-2.827.211-.252.634-1.717.944-3.269.311-1.549.856-3.273 1.221-3.838 1.422-2.218 1.608-2.674 2.15-5.19.302-1.403.735-2.772.962-3.022.22-.248.65-1.446.936-2.608.287-1.157.727-2.48.96-2.874.252-.422.366-.983.269-1.332-.283-1.074 1.27-.632 1.966.561Zm-1.966-5.54c-.267.369-.906.801-1.362.919-.692.182-.849.668-.81 2.593.031 1.548-.413 3.611-1.274 5.952-.721 1.963-1.949 5.649-2.717 8.148-.766 2.498-1.483 4.78-1.588 5.039-.113.286-.217.574-.26.717-.038.134-.359.855-.721 1.614-.643 1.344-2.62 7.663-3.066 9.793-.129.626-.52 1.729-.84 2.392-.743 1.514-2.743 6.718-2.971 7.731-.091.388-.481 1.339-.848 2.046-.361.709-.732 1.936-.792 2.644-.063.732-.507 2.2-.994 3.292-.492 1.09-1.051 2.703-1.262 3.606-.501 2.183-1.577 5.217-1.958 5.518-.183.155-.086.6.23 1.074.423.622.419.707-.014.382-.355-.267-.706.067-.986.937-.249.749-.663 1.955-.957 2.774-1.419 3.868-2.308 8.129-1.747 8.372.421.189.36.376-.213.751-.666.433-2.824 6.628-3.101 8.923-.046.406-.512 1.977-1.04 3.512-.952 2.771-.91 4.016.121 3.497.345-.178.414-.074.175.252-.202.273-.59.381-.808.226-.416-.303-1.062.919-1.469 2.752-.131.6-.518 1.629-.863 2.338-.465.956-.479 1.352-.059 1.556.41.193.397.267-.048.266-.331-.008-.67.63-.734 1.362-.063.733-.347 1.576-.619 1.801-.278.227-1.049 2.495-1.71 5.008-.659 2.498-1.513 5.546-1.878 6.736-.381 1.196-.793 2.82-.933 3.66-.14.826-.391 1.702-.559 1.922-.166.234-.512 1.194-.751 2.108-1.024 3.856-.939 3.564-6.587 22.507-1.532 5.147-2.963 10.165-3.187 11.213-.22 1.019-.554 2.074-.717 2.307-.557.733-2.996 9.322-2.776 9.756.121.242-.013.396-.307.376-.285-.022-.556.496-.614 1.185-.059.661-.71 2.793-1.442 4.699-2.467 6.447-3.071 8.229-3.509 10.392-.498 2.448-1.142 4.201-2.53 6.788-.82 1.528-1.745 4.627-1.984 6.63-.045.391-.29.957-.52 1.211-.238.27-.932 1.997-1.531 3.819-.599 1.823-1.705 4-2.436 4.816-.739.818-1.304 1.862-1.268 2.326.069.914 2.19 2.778 3.632 3.193.472.131 1.332.546 1.892.902.658.422 1.15.492 1.362.216.182-.239 1.07-.377 1.949-.304 2.436.215 2.895-.432 3.6-5.11.18-1.161.502-2.072.732-2.06.216.016.329-.285.228-.644-.102-.374.296-1.547.895-2.628.598-1.082 1.286-2.765 1.548-3.77.272-1.007.714-2.431 1.017-3.239.303-.793.717-2.209.938-3.172.221-.963.659-2.275.995-2.939.325-.66.479-1.337.343-1.477-.141-.151.04-.711.406-1.273.358-.559.816-2.03 1.03-3.285.534-3.255 2.531-8.883 3.481-9.81.511-.495.643-1.012.378-1.446-.63-1.046-.164-3.47 1.333-6.887 1.036-2.379 4.053-12.071 4.167-13.393.059-.703.656-2.385 1.332-3.757.674-1.371 1.381-3.311 1.579-4.323.197-1.012.539-2.097.774-2.395.241-.327.473-.763.555-1.04 1.239-4.189 3.341-10.856 4.448-14.11.764-2.251 1.458-4.453 1.531-4.853.071-.386.36-1.035.613-1.394.258-.36.586-1.259.713-1.942.444-2.319 1.691-6.496 2.361-7.88.361-.742.854-2.392 1.078-3.608.232-1.232.863-3.624 1.419-5.349.557-1.726 1.203-3.87 1.447-4.799.239-.913.605-1.894.797-2.15.197-.258.871-2.09 1.484-4.056a184.77 184.77 0 0 1 1.798-5.524 31.126 31.126 0 0 0 1.024-3.605c.381-1.908 2.73-9.477 4.614-14.888.686-1.962 2.201-6.74 3.354-10.525 1.138-3.808 2.256-7.168 2.453-7.435.21-.277.422-.692.504-.966.074-.263.755-2.202 1.497-4.26.739-2.056 1.335-4.025 1.311-4.325-.057-.693 1.039-4.756 1.43-5.297.187-.255.443-1.021.57-1.7.12-.676.485-2.45.797-3.902.316-1.45.552-2.831.532-3.034-.022-.203.475-1.414 1.085-2.644 1.131-2.278 3.27-10.365 4.167-15.76.455-2.721.399-3.029-.822-4.605-.985-1.266-1.662-1.688-2.716-1.684-.984.002-1.543-.296-1.863-.999-.373-.817-.546-.874-.958-.303ZM18.084 90.713c-.416.175-.302.392.281.562 1.107.314 1.545.071.84-.473-.267-.204-.723-.234-1.121-.089Zm3.713.968c-2.61.527-10.224-.972-10.943-2.171-.321-.505-.526-.641-.487-.29.048.34-1.035.365-2.45.049l-2.541-.56.88 1.475c.762 1.253 1.958 1.68 8.068 2.903 3.903.79 8.477 1.324 10.056 1.186l2.895-.265-1.767-1.36c-1.242-.957-2.342-1.246-3.711-.967Zm-6.382-6.808c-1.985-1.53-2.3-1.579-3.122-.512-.54.701-1.198.969-1.587.67-.38-.294-1.554-.51-2.673-.49-1.099-.007-2.693-.31-3.584-.696-3.106-1.36-3.147-.23-.045 1.6 1.63.976 3.176 1.586 3.484 1.393.314-.21.904-.099 1.352.246 1.046.806 10.754 2.693 11.15 2.18.353-.46-1.32-2.393-2.206-2.581-.298-.057-1.576-.891-2.77-1.81Zm15.23 11.237c-.546-.163-1.334.09-1.677.536-.603.783-3.064.78-8.565.004-7.636-1.086-11.635-1.95-12.057-2.642-.317-.502-.997-.38-1.836.328-.74.612-1.73 1.42-2.22 1.795-.788.62-.51.77 2.29 1.248 1.738.306 3.94.906 4.869 1.342 2.02.932 6.458.824 14.392-.355 6.303-.93 7.447-1.468 4.804-2.256Zm-41.749-44.826c.039.288.453.65.905.783.533.153.507-.04-.071-.528-.473-.407-.877-.525-.834-.255Zm102.506 73.303c-.104.135-.062.491.088.907.16.381.446.452.675.155.229-.297.18-.679-.103-.897-.295-.228-.556-.3-.66-.165Zm-7.234-48.712c-.06.449.116.885.408 1.11.301.233.527.105.586-.344.039-.422-.12-.866-.42-1.097-.3-.232-.533-.089-.575.331ZM-56.203-48.831c-.582.756-.097 1.366 3.474 4.439 3.881 3.334 5.366 4.757 9.23 8.895.826.873 2.138 2.227 2.879 2.949.768.742 1.83 1.926 2.448 2.724.68.868 1.263 1.188 1.502.878.218-.284-.365-1.528-1.271-2.722a166.17 166.17 0 0 1-2.763-3.762c-.613-.86-1.88-2.18-2.87-2.963-.972-.77-2.876-2.732-4.235-4.36-1.355-1.645-3.65-3.864-5.095-4.956-2.148-1.633-2.748-1.837-3.299-1.122Zm3.801-1.846c-.806-.062-.437.459 1.315 1.894 5.652 4.59 8.26 7.116 12.68 12.326 4.573 5.373 5.129 6.51 3.742 7.744-.932.83-.94 1.318-.078 2.67.722 1.115.778 1.89.178 2.396-.926.792-1.956.063-5.011-3.581-2.345-2.774-4.245-4.775-7.454-7.806-4.168-3.942-5.838-5.809-5.373-5.988.257-.104-1.051-1.197-2.897-2.404-1.843-1.205-3.502-2.03-3.658-1.828l-.675.877c-.209.27.373 1.062 1.267 1.75.892.688 1.725 1.78 1.835 2.403.107.685.243.79.313.285.138-.99 2.982 1.651 5.92 5.549 1.085 1.438 3.682 4.277 5.787 6.371 2.119 2.084 4.8 4.924 5.995 6.36 1.86 2.207 2.046 2.738 1.287 3.723-1.05 1.363-1.319 1.2-4.61-2.756-1.37-1.614-3.234-3.587-4.138-4.391-.915-.791-3.573-3.591-5.902-6.224-6.256-7.098-9.24-10.106-9.583-9.66-.166.215.415 1.2 1.288 2.13 2.139 2.358 5.37 6.545 6.456 8.372.48.779 2.608 3.041 4.702 4.955 2.558 2.336 3.975 4.073 4.258 5.215.406 1.69.391 1.72-1.5 2.415-1.745.634-2.101.51-3.76-1.24-1.012-1.06-2.37-2.687-3.004-3.604-1.33-1.907-2.366-3.2-4.806-6.004-.915-1.048-2.45-2.984-3.381-4.239-1.593-2.151-1.833-2.272-3.49-1.893-1.012.232-2.169.91-2.668 1.559-.759.985-.586 1.42 1.257 3.248 1.169 1.158 3.167 2.869 4.412 3.785 3.71 2.686 9.608 9.121 9.057 9.837-.697.904-2.817.884-3.157-.023-.393-1.056-1.756-2.45-5.733-5.922-1.944-1.691-4.092-3.797-4.73-4.654-1.867-2.514-3.616-3.624-4.064-2.615-.467 1.06-1.156 2.508-1.374 2.9-.611 1.098 17.99 15.212 19.375 14.687.78-.302 2.897 1.522 2.812 2.402-.249 2.476-7.647-.707-14.894-6.419-4.142-3.255-5.153-4.227-8.1-7.787-1.026-1.263-1.172-1.247-2.284.197-1.456 1.89-.597 3.24 4.487 7.026 6.059 4.539 10.556 6.648 21.82 10.227 3.443 1.083 6.373 2.458 8.049 3.75C-38-.789-37.872-.562-38.815.367c-.537.533-1.378.767-1.82.513-2.75-1.668-9.327-4.948-9.74-4.858-.994.224-11.164-3.783-15.37-6.032-2.398-1.31-5.976-3.701-7.97-5.344-3.296-2.711-3.62-2.875-3.813-1.776-.107.649.698 2.538 1.8 4.182 1.758 2.645 2.506 3.285 6.123 5.276 2.289 1.247 5.201 2.458 6.54 2.715 1.327.226 3.21.773 4.121 1.175.929.414 3.823 1.051 6.463 1.43 2.649.362 5.8 1.155 7.059 1.738 2.441 1.17 10.282 7.21 13.67 10.53 1.98 1.956 2.07 1.982 4.36.82 1.302-.653 3.075-1.501 4.027-1.908 2.631-1.156 8.892-9.173 8.652-11.078-.1-.83-.096-2.053.02-2.759.224-1.419-1.45-3.998-7.262-11.163-2.107-2.613-4.239-5.567-4.709-6.53-.81-1.7-4.153-6.232-9.159-12.475-2.498-3.086-4.556-5.295-8.26-8.814-1.378-1.299-2.548-2.544-2.57-2.733-.134-.706-4.71-3.864-5.748-3.954Zm5.388-1.85c-.073.095.394.41 1.046.698.65.286 1.345.305 1.553.035.198-.256-.268-.572-1.054-.683-.777-.125-1.472-.144-1.545-.05ZM126.66 82.305c.13.94 1.022.4 1.373-.813.348-1.173.317-1.197-.548-.465-.478.406-.868 1.01-.825 1.278Zm-16.297-23.779c-2.168-.423-4.962-.102-9.835 1.134-2.781.697-6.49 3.99-5.437 4.823.46.376.342.478-.475.408-.864-.085-1.771.808-4.13 4.066-2.534 3.51-3.125 4.819-3.688 8.235-.375 2.249-.517 4.16-.306 4.259.208.095 1.307 1.952 2.439 4.18 3.191 6.264 6.532 10.235 12.488 14.952 2.909 2.284 5.193 4.258 5.089 4.393-.114.149-.673.6-1.298 1.065-.985.725-1.625.469-5.932-2.376-6.714-4.44-12.142-10.278-15.22-16.326-1.92-3.78-2.664-4.762-3.56-4.742-.659.03-1.301.245-1.52.528-.218.284-1.246.717-2.334.976-1.097.274-1.986.772-2.03 1.147-.034.36-.92 1.312-2 2.136-1.46 1.113-2.18 2.17-2.923 4.286-2.119 6.045-2.404 9.568-1.068 13.543 1.2 3.592 1.434 3.9 4.295 5.524 1.638.961 5.005 3.017 7.39 4.552 2.378 1.531 5.206 2.957 6.218 3.134 1.028.168 2.679.73 3.703 1.261 1.018.526 2.119.836 2.46.712.334-.13 1.035.088 1.535.473s1.431.586 2.034.449c.6-.14 2.387.031 3.96.362 5.559 1.206 9.075.861 13.794-1.332 3.906-1.83 4.422-2.229 3.665-2.833-2.828-2.286-.78-5.977 3.779-6.809 1.664-.289 3.275-.402 3.502-.228.231.178 1.494-.548 2.791-1.613 2.34-1.918 2.366-1.985 2.011-5.698-.787-8.456-1.331-11.994-2.204-14.515-.493-1.412-.606-2.812-.235-3.042.386-.24.327-.522-.124-.655-.456-.136-.975-1.202-1.19-2.464-.216-1.264-.573-2.205-.817-2.178-.236.033-.739-.892-1.09-1.98-.357-1.114-1.295-3.255-2.072-4.714-.767-1.472-1.124-2.65-.773-2.595.351.055.298-.03-.122-.202-.418-.172-1.299-1.301-1.986-2.562-.694-1.265-1.533-2.772-1.905-3.446-.565-1.016-3.289-4.468-4.315-5.495-.194-.215-1.322-.546-2.564-.793ZM18.976-14.707c-6.865-1.568-7.16-1.58-15.052-.605-4.118.505-7.315.752-7.16.55.157-.203-.537-.178-1.557.068-1.02.247-1.825.552-1.814.71.066.417 6.223.858 8.636.61 1.114-.11 3.523.155 5.243.597 1.709.457 3.3.65 3.457.448.156-.202 3.865.332 8.203 1.18 4.339.847 8.2 1.433 8.539 1.308 1.546-.594-4.199-3.858-8.495-4.866Zm8.368-.372c-.315.038-.503.237-.47.499.085.688 7.815 6.622 9.12 6.982 1.227.364 1.227.364.552-.715-.782-1.247-8.423-6.875-9.202-6.766Zm43.353 28.75c-3.252-2.42-8.169-5.325-12.812-7.525-2.251-1.09-5.249-2.667-6.745-3.583-1.503-.921-4.25-1.984-6.206-2.436-1.95-.449-4.23-1.13-5.139-1.55-3.273-1.51-9.318-3.264-12.675-3.7-1.877-.24-3.573-.537-3.704-.638-.363-.28-10.542-1.539-11.156-1.388-.252.064-1.404-.05-2.588-.251-1.189-.207-2.687-.242-3.373-.105-.725.173-1.345.018-1.477-.341-.144-.37-.363-.452-.56-.196-.178.23-1.581.245-3.09.051-1.503-.212-3.276-.266-3.906-.127-.627.14-1.904-.09-2.838-.53-2.552-1.214-4.02-.688-3.84 1.364.083.924.407 1.905.733 2.157 1.141.878.749 2.791-1.21 5.864-1.095 1.715-2.053 3.6-2.174 4.238-.112.624-.467 1.168-.785 1.224-.313.038-1.372.943-2.355 2.013-1.962 2.145-8.082 5.732-9.873 5.793-1.712.058-1.696 2.092.027 5.096.862 1.46 1.414 2.896 1.248 3.112-.208.27-.067.464.327.51.35.034.742.68.839 1.377.203 1.426 2.312 5.33 3.792 7.007.536.607 1.57 2.221 2.321 3.617.741 1.366 2.297 3.855 3.422 5.474 1.957 2.776 2.722 4.183 5.503 10.132.63 1.346 1.41 2.463 1.687 2.439.284-.04.996 1.069 1.548 2.418 2.28 5.628 13.416 17.538 24.923 26.66.672.518 2.296 1.597 3.545 2.344 1.271.764 3.301 2.392 4.557 3.64 1.258 1.248 2.561 2.144 2.927 2.018.356-.135 1.337.47 2.116 1.307.87.928 1.495 1.28 1.55.87.054-.409.18-.613.31-.513.127.098 2.243 1.212 4.677 2.463 2.443 1.258 5.45 2.865 6.64 3.567 1.199.708 3.251 1.751 4.554 2.324 1.3.572 3.814 1.928 5.595 3.02 5.192 3.225 5.192 3.225 5.874.353.323-1.343.539-3.263.48-4.19-.051-.92.157-2.05.469-2.456.301-.391.544-1.108.5-1.508-.25-2.816 4.684-11.789 6.946-12.628.471-.174 1.487-1.026 2.339-1.961.828-.91 2.669-2.46 4.075-3.442 1.41-.979 2.934-2.514 3.365-3.386 1.828-3.646 5.903-9.861 8.63-13.16 2.381-2.875 3.672-3.859 7.495-5.667 2.542-1.203 5.128-2.33 5.756-2.49 4.142-1.132 4.201-1.28 1.99-5.608-1.138-2.23-2.933-4.925-4.031-6.03-1.07-1.081-1.787-2.258-1.559-2.555.292-.378.165-.454-.393-.26-.606.221-1.363-.34-2.922-2.122-1.17-1.352-2.721-2.978-3.521-3.701-.784-.733-1.537-1.593-1.681-1.983-.15-.373-3.968-3.745-8.448-7.496-4.484-3.735-8.212-6.972-8.25-7.172-.043-.228-.295-.314-.635-.21-.307.085-1.557-.598-2.813-1.544ZM32.393-18.545c-.565.016-1.292.338-1.552.675-.81 1.053 12.953 11.978 17.338 13.786 3.556 1.448 4.55 1.419 3.249-.1-1.874-2.196-18.035-14.386-19.035-14.36Zm7 .425c-.334.107-.048.629.646 1.163.694.535 1.506.86 1.835.747.345-.12.05-.628-.645-1.163-.693-.534-1.496-.873-1.836-.747Zm8.726 3.84c-.597.012-1.865-.362-2.904-.862-3.679-1.801-2.218.314 3.646 5.346 3.291 2.815 6.453 5.853 7.06 6.772.759 1.165 1.61 1.821 2.854 2.156.99.29 2.476.896 3.426 1.413.94.53 1.774.915 1.92.898.148-.015-.741-1.41-1.963-3.104-3.692-5.08-12.17-12.686-14.038-12.62Zm16.34 3.51c-.482-.048-1.161.18-1.557.5-.73.598-.382 1.04 4.131 5.16 1.406 1.298 3.648 3.8 4.903 5.454 6.695 8.9 12.866 15.588 13.552 14.698.728-.945-14.635-21.21-18.467-24.354-.925-.756-2.086-1.435-2.563-1.458Zm8.474-4.053c.027.236.969 1.305 2.07 2.347 5.865 5.55 13.823 15.465 17.045 21.26 1.043 1.834 2.205 3.59 2.618 3.908.884.68 3.414 6.157 3.66 7.895.131.96-.009 1.176-.655 1-.445-.127-.307.194.318.719.631.507 1.355 1.84 1.633 2.913.275 1.093.871 2.262 1.323 2.61.458.353 1.342 2.067 2.011 3.872.654 1.816 1.848 3.983 2.689 4.932.859.94 1.494 1.968 1.447 2.34-.04.357.476 1.077 1.124 1.576 1.74 1.34 2.318 2.58 1.468 3.11-.397.252-.608.8-.465 1.19.158.422.645.496 1.162.185.782-.473.994-.31 1.767 1.36.486 1.042 1.929 2.691 3.243 3.66 2.785 2.038 6.15 5.856 7.49 8.48 2.808 5.496 3.951 7.99 4.204 9.238.157.787.672 2.216 1.197 3.287 2.143 4.425 2.507 5.996 4.685 20.448.644 4.303 1.365 7.976 1.597 8.155.251.193.164.427-.217.586-.365.148-.348.656.026 1.203.365.517.532 2.581.371 4.608-.23 2.92-.498 3.659-1.357 3.707-.575.03-1.105-.271-1.177-.627-.058-.368-.163-.254-.233.25-.071.527-.681 1.046-1.411 1.215-.722.153-1.541.619-1.895 1.078-.343.445-.824.548-1.104.246-.278-.3-.7-.066-.96.529-.279.624-1.505 1.293-2.943 1.604-2.645.587-2.705 1.25-.119 1.285 1.965.03 3.366 1.131 2.996 2.373-.293.978-5.647 5.069-7.172 5.486-.418.108-1.719.891-2.891 1.73-1.543 1.112-3.337 1.559-6.582 1.661-2.428.065-4.633-.085-4.844-.355-.216-.295-.398-.199-.443.24-.075.694-4.989.909-5.835.257-.238-.183-1.068-.112-1.758.152-1.745.655-11.706-1.383-16.308-3.336-1.972-.831-6.954-3.615-11.093-6.158-4.128-2.556-9.888-5.724-12.783-7.051-2.944-1.321-6.124-2.911-7.164-3.562-1.036-.646-4.4-2.463-7.528-4.056l-5.653-2.892-2.847 1.291c-3.268 1.482-10.186 2.777-14.113 2.634-1.476-.04-3.559.098-4.725.317-1.16.225-3.225-.075-4.657-.684-3.152-1.331-7.853-2.974-11.93-4.157-2.973-.87-3.03-.914-2.803-2.202.346-1.949 1.117-2.71 3.828-3.783 1.63-.659 2.4-1.269 2.33-1.861-.11-.837-4.19-6.281-6.158-8.249-1.717-1.688-2.41-3.125-2.254-4.64.133-1.295.399-1.52 2.167-1.835 1.082-.177 2.444-.01 2.954.383.992.764 9.85 2.985 9.76 2.442-.028-.193-1.48-1.677-3.286-3.348-1.798-1.664-3.84-3.797-4.627-4.79-2.27-2.931-4.35-5.243-8.124-8.99-1.532-1.523-5.151-6.16-10.561-13.532-1.472-2.037-3.707-5.672-4.938-8.083-1.244-2.4-2.512-4.58-2.827-4.823-.294-.226-.402-.653-.225-.883.187-.243-.157-1.089-.752-1.848-.6-.763-1.219-1.95-1.365-2.6-.144-.648-.714-2.27-1.239-3.535a289.8 289.8 0 0 1-2.76-7.007c-2.43-6.39-4.155-7.975-13.807-12.722-4.25-2.092-8.055-3.775-8.5-3.773-.44.005-4.026-1.144-7.94-2.546-5.647-2.027-7.908-3.167-10.859-5.44-4.618-3.558-6.108-5.114-7.252-7.543-1.244-2.636-1.24-4.547-.02-7.629.914-2.306 1.215-2.655 2.206-2.515.633.1 1.335-.09 1.595-.428.29-.378.117-.469-.51-.242-2.267.834-1.001-1.395 5.124-9.043 6.078-7.597 6.52-8.289 6.197-9.785-.36-1.74.484-3.585 4.171-9.067 1.62-2.409 2.864-3.75 3.626-3.938.947-.239.999-.306.301-.392-1.151-.113 1.006-3.117 3.228-4.503 1.367-.84 5.07-.31 5.92.861.179.267.84.454 1.405.437.58-.026 1.857.721 2.788 1.675.942.94 3.251 3.235 5.068 5.087 1.832 1.84 4.267 4.276 5.352 5.391 1.121 1.122 2.496 2.718 3.086 3.603.603.873 1.482 1.894 1.976 2.275.488.375 2.146 3.072 3.639 5.964 1.495 2.894 2.85 5.357 2.97 5.45.127.097.626 1.557 1.132 3.258.512 1.706 1.321 3.384 1.817 3.765.499.385.846 1.018.807 1.418-.05.413.662 1.306 1.603 2.03 1.193.92 2 1.09 2.72.59.875-.616 4.537-1.344 13.798-2.748 1.622-.256 5.43-.419 8.562-.372 3.141.032 5.935-.052 6.284-.192.362-.152 2.27.242 4.31.89 2.035.642 4.507 1.084 5.584.968 1.796-.165 1.91-.271 1.802-1.687-.14-1.937 2.06-5.468 2.973-4.764.406.313 1.27.462 2.06.36.79-.1 1.246-.029 1.09.174-.156.202.362.3 1.205.24.785-.04 2.374.366 3.46.901 1.122.542 3.413 1.232 5.175 1.513 1.75.294 3.595.877 4.146 1.301 1.194.92 12.378 6.374 12.953 6.323.198-.02.29-.487.204-1.091-.071-.592.61-2.024 1.536-3.225 1.528-1.984 1.843-2.108 3.965-1.549 2.108.55 8.521 4.887 8.648 5.845Z"
  />
  <path
    d="M91.746 40.229c-.402 1.281-.119 1.285-4.525-.196l-3.711-1.245 1.254 2.643c.705 1.447 1.57 2.866 1.96 3.165.472.364.317.869-.485 1.606-.656.592-1.25 1.016-1.329.955-.083-.065-.82-1.514-1.682-3.274-.847-1.771-1.867-3.417-2.296-3.748-.407-.313-.672-1.227-.55-1.93.248-1.506 2.423-1.895 6.174-1.114 3.749.802 5.586 1.895 5.19 3.138ZM48.078 13.322c.274.771-.116 1.03-1.832 1.192-1.203.127-2.801-.007-3.546-.28-1.54-.563-2.854.576-1.687 1.475.446.343.575.7.282.819-.278.109.36.814 1.384 1.539 2.37 1.654 2.573 2.218 1.09 2.861-1.196.52-2.032-.189-6.358-5.478-.17-.216-.475-.495-.759-.713-.256-.198-.267-.915-.013-1.602.521-1.405 3.738-2.67 4.785-1.862.4.307 1.069.307 1.586-.005.516-.312 1.087-.216 1.373.22.242.4.62.585.776.382.479-.62 2.526.419 2.919 1.452ZM70.959 33.163c-.403.958-1.085 1.014-3.444.272-4.524-1.42-5.187-1.221-4.95 1.5.117 1.272.407 2.398.648 2.54 1.91 1.02 1.496 2.659-.696 2.755-.979.042-1.285-.237-1.49-1.405-.146-.844-.45-1.659-.7-1.917-.731-.692-2.028-5.045-1.766-5.94.408-1.407 1.892-1.834 4.386-1.267 1.358.293 3.433.623 4.542.682 2.655.152 4.09 1.322 3.47 2.78ZM22.413 1.703c-.458.271-.997.373-1.14.198-.152-.182-1.249-.49-2.506-.705-2.163-.375-4.297.131-5.118 1.197-.5.648.783 2.582 2.925 4.425 1.34 1.14 1.537 1.68.966 2.702-.69 1.253-.748 1.23-3.82-1.674-3.2-3.045-4.667-5.66-3.825-6.752C11.132-.513 15.1-1.241 18.492-.5c4.051.905 5.101 1.499 3.92 2.202ZM79.849 52.075c1.494 2.377-1.547 3.454-4.133 1.462-.546-.421-2.002-.64-3.217-.5l-2.228.263.245 1.845c.126 1.043.748 2.726 1.392 3.846.74 1.301.892 2.343.425 2.95-1.03 1.337-1.937 1.132-2.406-.584-.32-1.128-.248-1.309.351-.87.666.47.718.403.395-.512-.554-1.545-1.177-1.875-1.491-.783-.432 1.495-.922.73-1.53-2.383-.905-4.675 2.53-7.299 8.435-6.428 2.137.313 3.213.798 3.762 1.694ZM48.926 34.084c-.56 1.805-1.831 2.009-3.508.587-.863-.728-1.614-1.113-1.648-.839-.051.284-.627.291-1.309.046-2.533-.94-3.051 2.94-.927 6.963.779 1.46.018 3.283-1.322 3.154-1.126-.115-2.3-2.159-1.687-2.955.302-.392.227-.772-.16-.812-1.393-.148-2.165-6.442-.98-7.98.863-1.12 5.409-1.684 6.555-.8.346.265 1.196.361 1.821.198.665-.155 1.667.1 2.312.597.648.5 1.019 1.302.853 1.84ZM29.532 19.23c-.436 1.428-2.768 2.019-4.965 1.272-1.07-.35-3.019-.475-4.33-.238l-2.385.42 1.352 2.31c.75 1.288 2.208 2.971 3.287 3.802 1.293.996 1.831 1.84 1.626 2.521-.608 2.006-1.084 2.026-3.005.095-1.031-1.031-2.389-2.293-3.005-2.788-.634-.51-.899-.994-.617-1.1.281-.106-.15-.782-.94-1.497-1.656-1.448-1.85-2.286-.959-4.051.632-1.255 4.172-3.196 4.86-2.665.163.125 1.875.24 3.755.268 4.407.04 5.707.44 5.326 1.651ZM62.93 50.032c-.37.145-.51.51-.36.926.45 1.165-1.176 1.526-3.906.863-1.468-.356-3.04-.427-3.483-.166-1.293.788-1.983 2.923-1.735 5.394.21 2.14-.071 3.193-1.169 4.347-1.562 1.635-2.79-4.859-1.763-9.294.502-2.15 3.34-4.007 5.124-3.343.618.218 1.355.184 1.563-.086.239-.31.638-.154.95.366.313.52.575.593.609.19.039-.4.97-.543 2.139-.31 2.363.423 2.956.75 2.031 1.113ZM4.355 10.697c-.982.19-2.559.76-3.459 1.25-1.575.872-1.6 1.004-.503 3.29.633 1.326 1.706 3.055 2.45 3.908 1.046 1.215 1.107 1.692.34 2.283-1.074.83-2.118.434-2.328-.89-.076-.466-.794-1.535-1.626-2.413-5.028-5.292-3.342-9.413 3.694-9.004 2.885.157 3.77 1.119 1.432 1.576ZM26.129 38.631c-1.03 1.336-2.617 1.189-2.802-.266-.088-.67.256-1.136 1.097-1.52 1.737-.791 2.817.342 1.705 1.786ZM22.616 38.376c-.197.666-.955.857-2.342.605-1.116-.193-2.226-.145-2.413.098-.364.473 1.99 3.898 3.482 5.048.505.389.543 1.042.075 1.65-1.091 1.417-1.945 1.082-3.188-1.21-.602-1.108-1.844-3.054-2.818-4.363-2.093-2.839-1.406-4.309 1.78-3.855 1.22.166 2.357.246 2.618.189 1.255-.303 3.09.895 2.806 1.838ZM56.268 66.04c-.435 1.45-2.339 2.005-3.877 1.121-1.937-1.083-3.22-.867-4.478.766-.686.891-.97 2.242-.749 3.552.448 2.604-1.176 5.095-2.606 3.993-1.31-1.009-1.51-6.152-.328-8.49 1.238-2.444 3.52-4.062 5.355-3.788.78.128 2.32.282 3.436.366 2.471.184 3.655 1.096 3.247 2.48ZM63.907 74.935c-.27.35-.3.952-.061 1.308.253.367-.495.436-1.7.152-1.206-.283-2.274-.332-2.45-.102-.178.23-.408.116-.573-.29-.164-.407-.364-.496-.494-.23-.128.245-1.047.87-1.975 1.339-1.864.95-2.03 1.576-.745 2.759 1.536 1.398 2.44 3.105 2.168 4.036-.294 1-2.651 1.527-3.597.799-.678-.523-3.043-.13-4.472.749-1.149.706-.273 4.692 1.545 6.953 1.122 1.424 1.116 1.462-.323 1.45-1.998-.034-4.631-2.836-5.17-5.53-.482-2.393 1.115-4.883 4.005-6.228 1.737-.812 1.826-.98 1.335-2.498-.388-1.202-.142-2.13.93-3.52 1.34-1.742 4.981-3.389 5.952-2.684.225.152 1.116.129 1.988-.082 1.982-.451 4.406.62 3.637 1.619ZM7.754 36.434c-.462 1.536-2.447 1.663-4.902.331-3.875-2.103-5.062.295-2.123 4.3 1.739 2.372 1.944 3.39.791 4.116-.861.54-1.715-.655-4.187-5.871-2.49-5.208-.265-8.247 4.411-6.043.814.39 2.386.913 3.591 1.196 2.606.631 2.775.783 2.42 1.971ZM26.063 51.87c-.613.603-1.65.708-2.836.289-4.608-1.593-5.766.096-3.354 4.879 1.804 3.518 1.866 5.136.201 4.563-1.791-.605-5.348-8.7-4.73-10.761.523-1.77 2.966-2.362 6.686-1.647 4.48.87 5.325 1.415 4.033 2.677ZM36.87 63.228c-.038.4-1.302.932-2.829 1.175-1.528.242-2.954.692-3.183.988-.593.77.889 3.782 2.434 4.973 1.488 1.145.97 3.047-.703 2.554-1.746-.527-4.296-3.674-4.874-6.012-.418-1.72-.255-2.411.737-3.196 2.182-1.738 8.589-2.093 8.419-.482ZM112.3 81.008c-.457.594-.382 1.21.213 1.67.499.384.97 1.305.995 1.948.061 1.725 3.522 3.982 4.618 2.998.551-.5.366-1.503-.626-3.3-1.718-3.107-4.16-4.666-5.2-3.316Zm7.208.197c.167.71.06 1.358-.248 1.4-.303.046-.169.386.276.73.941.724 1.434 2.867.831 3.65-.187.243-.208 1.194-.048 2.114.412 2.296-.172 2.792-3.047 2.62-2.958-.192-4.592-1.343-6.62-4.669-2.874-4.709-2.274-9.15 1.364-10.068 2.254-.564 6.959 2.092 7.492 4.223ZM-35.32 311.854c-.46-.042-.483-1.196-.03-1.573.227-.189.377.068.378.642-.002.514-.162.946-.348.931Zm78.652-74.074c-.112.317.159.419.655.247 1.585-.546 4.614 5.591 4.818 9.765.06 1.229.032 2.36-.062 2.544-.095.185-.272 1.018-.398 1.865-.123.829-.69 3.046-1.24 4.84-1.496 4.881-2.54 5.276-10.166 3.831-1.175-.224-3.372-.868-4.908-1.442-1.537-.574-2.942-.904-3.14-.74-.187.157-.531.091-.72-.135-.203-.244-.796-.519-1.355-.627-.541-.108-2.191-.796-3.632-1.515-3.31-1.654-4.265-1.832-2.69-.508 1.683 1.413 8.324 4.443 10.76 4.908.564.106.885.287.736.41-.141.118.167.307.66.409.493.101 1.013-.079 1.116-.387.111-.335.232-.288.286.114.09.661 1.624 1.332 3.623 1.583 1.667.21 6.02 1.207 6.198 1.421.086.103-.166.3-.564.437-.384.132-.987.924-1.294 1.704-.742 1.873-4.413 7.301-5.615 8.301-.49.409-.925.976-.949 1.238-.025.266-.74 1.107-1.583 1.86-.843.755-2.042 1.988-2.653 2.724-1.624 1.96-4.236 4.66-6.764 6.996-1.229 1.134-2.306 2.266-2.384 2.508-.08.244-2.038.036-4.42-.473-2.382-.508-5.02-1.042-5.957-1.207-.952-.165-1.86-.505-2.091-.781-.22-.264-.508-.204-.623.135-.13.379-.25.38-.303-.003-.106-.742-7.758-5.171-8.24-4.77-.186.156.156.669.751 1.133.594.463 1.565 1.237 2.132 1.707.884.726 5.481 3.488 8.963 5.38.419.228.899.144 1.02-.178.12-.316.214-.348.197-.069-.017.3.984.908 2.264 1.376 1.28.467 2.23 1.031 2.15 1.276-.079.24-.904 1.062-1.816 1.81-1.498 1.227-4.686 4.81-6.008 6.752-.611.896-7.804.301-9.63-.798-.668-.403-1.406-.62-1.586-.47-1.115.929-17.12-9.068-19.865-12.405-.28-.341-.708-.497-.907-.331-.697.581 3.297 4.412 9.45 9.065 2.413 1.825 10.23 6.097 10.825 5.916.232-.072.596.102.848.404.242.29 1.062.585 1.825.653.76.069 1.287.204 1.174.299-.112.093.767.449 1.913.772 2.452.692 2.479 1.086.208 3.118-.85.76-2.746 2.841-4.242 4.652-1.495 1.809-3.675 4.169-4.874 5.273-1.194 1.1-2.134 2.042-2.092 2.093.044.052-.223.422-.595.82-6.16 6.636-6.736 7.185-15.272 14.582-8.87 7.689-10.548 8.672-14.605 8.556-2.47-.071-2.81-.229-4.256-1.965-1.74-2.089-1.78-3.286-.27-8.073.184-.58.77-2.109 1.297-3.393.53-1.283.958-2.792.951-3.347-.007-.57.213-1.044.502-1.084.687-.097 1.475-2.861.871-3.063-.282-.095-.192-.267.209-.399.391-.13 1-1.024 1.378-2.027 1.936-5.122 3.203-8.813 3.161-9.199-.023-.23.61-2.004 1.435-4.008.824-2.003 1.679-4.443 1.932-5.506.255-1.077.543-1.988.66-2.086.114-.095.73-2.193 1.367-4.652.636-2.459 1.386-4.67 1.667-4.904.263-.219.395-.56.273-.706-.128-.154.211-1.242.74-2.374.53-1.136 1.419-3.553 1.946-5.297.53-1.744 1.205-3.399 1.482-3.631.264-.22.547-.823.585-1.254.045-.485.197-.811.368-.785.163.024 1.53 1.442 3.061 3.171 5.633 6.364 17.07 13.096 19.615 11.545 1.44-.879.5-2.69-1.482-2.854-3.296-.274-10.565-3.939-13.731-6.925a48.07 48.07 0 0 0-2.078-1.786c-2.131-1.738-5.24-5.22-4.908-5.497.162-.135.646-1.331 1.055-2.606.418-1.302 1.628-4.336 2.712-6.797 1.084-2.458 1.84-4.771 1.693-5.18-.177-.493-.067-.668.326-.527.393.138 1.041-.785 1.916-2.729 1.752-3.882 3.101-6.614 3.546-7.173.186-.23.521-.759.719-1.131 2.373-4.443 10.441-15.842 13.508-19.079 3.776-3.985 8.941-7.684 9.61-6.881.183.22.446.152.629-.164.969-1.657 5.358-1.372 6.787.441 1.127 1.426 2.756 2.265 4.981 2.563 1.707.227 3.953 1.819 4.642 3.292.478 1.025 2.653 2.135 5.47 2.793 3.473.813 4.891 1.824 5.743 4.101.42 1.12.665 2.233.56 2.538Zm75.095-67.855c-1.098-.227-2.691.632-7.156 3.86-4.549 3.287-15.46 9.289-18.499 10.172-2.282.666-2.272.418.029-.73 1.053-.528 3.318-2.31 5.098-4.01 4.447-4.253 5.368-5.273 7.312-8.1.494-.714 1.172-1.526 1.57-1.876.441-.389.489-1.078.126-1.863-.828-1.795-1.977-1.663-3.918.456-3.695 4.024-4.928 5.208-9.876 9.474-2.864 2.471-5.723 4.733-6.355 5.031l-1.146.541.725-1.351c.76-1.413 3.32-4.612 8.643-10.802 1.688-1.965 3.289-3.845 3.537-4.156.25-.315.364-.796.254-1.076-.11-.282.17-.677.629-.895 1.148-.538.127-3.604-1.067-3.198-.396.136-1.009.818-1.309 1.458-.299.64-.826 1.716-1.123 2.295-.574 1.113-6.145 7.585-8.444 9.813-.708.683-1.322 1.481-1.335 1.734-.015.266-.404.784-.892 1.191-.982.818-3.923 6.789-3.793 7.697.081.554-.98 1.307-5.595 3.977-1.442.833-3.758 2.471-5.23 3.696-3.321 2.766-3.3 1.793.042-1.869 1.37-1.502 3.758-4.54 5.272-6.711 1.515-2.171 3.665-5.135 4.746-6.542 1.074-1.396 2.72-3.807 3.602-5.268.885-1.47 2.272-3.293 3.05-4.011 1.085-1 1.346-1.603 1.091-2.506-.646-2.272-2.044-1.363-5.772 3.753-.16.218-.474.735-.676 1.107-.211.388-1.328 1.934-2.525 3.49-2.883 3.751-3.986 5.293-5.608 7.845-1.856 2.914-4.166 6.192-4.896 6.939a98.11 98.11 0 0 1-1.5 1.496c-.493.483-.797.961-.692 1.088.223.267-4.573 5.944-5.536 6.551-.42.266-.637.82-.492 1.25.167.499-.166 1.106-.941 1.712-1.627 1.268-10.44 9.4-11.346 10.47-.418.494-.838.761-.963.611-.262-.315 1.086-3.686 1.848-4.613.258-.315.87-1.331 1.344-2.224 2.284-4.314 3.68-6.683 4.183-7.101.305-.254.902-1.179 1.298-2.01.401-.843 1.27-2.27 1.931-3.167 1.028-1.395 6.601-9.874 7.753-11.792 1.044-1.738 3.272-5.086 4.115-6.184 1.113-1.45 6.83-6.074 8.975-7.259 1.999-1.106 3.519-2.375 7.16-5.984 9.312-9.227 9.832-9.954 8.202-11.468-.903-.838-2.523.102-3.052 1.769-.213.673-1.379 2.105-2.589 3.184-1.227 1.093-3.253 3.077-4.577 4.482-1.297 1.377-3.635 3.614-5.156 4.934-1.523 1.32-2.994 2.734-3.248 3.121-.255.386-.78.592-1.158.452-.37-.137-.465-.25-.204-.244.274.005.859-.695 1.33-1.589.472-.892.913-1.513 1.002-1.406.085.102.455-.606.812-1.557.937-2.483 1.844-4.557 2.686-6.138a36.618 36.618 0 0 0 1.376-2.951c.357-.874 1.023-1.818 1.541-2.177.688-.478.74-.832.211-1.455-2.082-2.456-3.486-1.365-6.392 4.967-1.387 3.019-2.452 5.617-2.395 5.835.06.226-.121.582-.424.833-.28.233-.697.85-.888 1.313-.783 1.9-3.765 6.528-4.18 6.489-.45-.041 2.377-6.2 3.13-6.828.756-.629 3.364-7.394 3.014-7.813-.188-.226-.14-.369.12-.356.234.011.641-.729.878-1.594.248-.901 1.126-3.175 1.985-5.138 1.607-3.671 1.52-4.228-.806-5.079-1.065-.39-1.065-.39-1.148 1.085-.047.825-.595 2.546-1.247 3.912-.65 1.367-1.06 2.564-.928 2.723.143.171.085.41-.14.598-.68.565-2.082 5.982-1.562 6.027.262.027.063.192-.434.362-.546.191-.713.394-.412.504.274.1.03.537-.522.947-.553.408-1.107 1.372-1.2 2.086-.096.73-.48 1.582-.853 1.894-1.332 1.109-2.454 4.266-2.866 8.068-.311 2.869-.84 4.517-2.044 6.37-2.886 4.438-3.611 4.178-1.464-.528 1.38-3.026 3.538-11.331 3.085-11.875-.165-.198-.094-.497.17-.717.242-.201.526-1.017.612-1.757.088-.748.334-2.401.539-3.612.313-1.851.21-2.288-.612-2.557-1.43-.47-1.722-.016-2.188 3.414-.226 1.651-.517 3.12-.64 3.222-.339.285-1.853 6.786-1.7 7.295.077.246-.023.534-.25.722-.209.174-.539 1.31-.738 2.531-.196 1.22-.528 2.357-.735 2.53-.228.189-.197.38.077.478.248.089-.023.431-.59.747-.844.473-.993.956-.77 2.494.152 1.025.522 2.197.8 2.531.365.438-.026 1.389-1.32 3.208a308.467 308.467 0 0 0-2.847 4.066c-.547.801-1.399 1.92-1.862 2.445-.475.538-1.162 1.521-1.544 2.213-.383.692-.949 1.461-1.275 1.733-.49.408-.587.334-.603-.456-.01-.504.158-1.091.358-1.258.718-.598 2.415-12.294 1.878-12.94-.137-.164-.097-2.092.09-4.227.185-2.136.308-5.126.27-6.554-.076-2.825.11-3.159 3.165-5.704 2.192-1.826 3.278-3.126 8.16-9.77 3.295-4.484 5.562-8.881 5.163-10.019-.146-.419-.815-.824-1.532-.929-1.24-.181-1.276-.154-1.402 1.04-.072.68-.2 1.587-.287 2.037-.138.73-2.89 4.968-4.42 6.814-.313.377-1.07 1.44-1.665 2.336-.597.898-1.614 2.24-2.24 2.952-.627.715-1.864 2.287-2.733 3.47-1.735 2.367-2.5 2.268-1.364-.177 1.465-3.154 2.529-6.075 2.72-7.479.115-.82.497-2.088.887-2.926.89-1.923-.054-3.138-1.802-2.317-.69.324-1.143.699-1.021.846.124.149-.117.857-.56 1.632-2.103 3.698-.778-3.005 1.78-8.989.846-1.979 1.333-3.738 1.103-3.973a30.693 30.693 0 0 0-.81-.795c-.563-.537-2.38 1.8-2.674 3.441-.329 1.833-1.043 3.552-1.7 4.099-.301.251-.57.816-.626 1.321-.054.49-.358 2.216-.685 3.894-.327 1.664-.44 4.554-.257 6.446.183 1.891.162 3.569-.046 3.743-.605.503-1.057 6.762-.63 8.708.561 2.545-.096 2.188-1.345-.735-.965-2.264-1.994-8.536-1.549-9.441.097-.193-.021-.563-.272-.864-.252-.303-.311-.637-.138-.781.167-.139.532-2.084.813-4.353.286-2.269.698-4.912.926-5.914.464-2.051.091-2.84-1.353-2.849-.727-.004-1.008.552-1.471 2.911-.538 2.731-1.53 12.735-1.476 14.896.09 3.699 1.45 8.187 3.23 10.666.516.72.855 1.627.777 2.069-.078.423.23 1.47.664 2.259.434.787.742 1.848.664 2.291-.115.653-.544.453-2.066-.963-2.393-2.227-3.907-5.119-4.849-9.257-.392-1.716-1.088-3.609-1.523-4.13-.668-.803-.99-.805-1.933-.019-.83.692-.982 1.125-.567 1.623.311.374 1.007 2.451 1.548 4.621.85 3.404 1.348 4.438 3.653 7.566 1.574 2.141 3.237 3.964 4.057 4.451.761.452 1.277.931 1.14 1.063-.135.129-.484 1.873-.767 3.835-.284 1.961-.77 3.993-1.071 4.47-.302.481-.526 1.084-.495 1.341.07.594-1.542 4.959-3.725 10.09-1.014 2.387-1.829 4.499-1.82 4.721.009.218-.292.878-.654 1.439-.53.822-.692.871-.779.233-.213-1.549-.444-4.397-.434-5.326.051-4.516.02-5.47-.19-5.721-.118-.141.044-.484.346-.736.313-.26.878-1.477 1.26-2.709.378-1.229 1.636-3.446 2.78-4.907 1.149-1.464 2.018-2.88 1.926-3.138-.094-.267.062-.657.362-.908.583-.485.383-.892-.762-1.537-.87-.49-2.065.431-2.07 1.596-.003.451-.566 1.653-1.23 2.622-.663.967-1.646 2.445-2.142 3.221-.498.781-1.072 1.419-1.26 1.402-.332-.031.409-3.345.825-3.691.122-.102.67-1.727 1.196-3.552.524-1.825 1.089-3.463 1.232-3.583.578-.481.718-4.049.184-4.69-.284-.34-.936-.638-1.39-.633-.66.008-.875.537-.944 2.319-.048 1.255-.294 2.482-.54 2.688-.244.202-.55 1.259-.66 2.276-.114 1.018-.402 1.881-.625 1.861-.616-.056-1.628-5.163-1.51-7.624.056-1.198-.017-2.343-.163-2.518-.153-.183-.254-.715-.236-1.241.018-.507-.126-1.941-.32-3.186-.2-1.301-.032-2.696.399-3.282 1.048-1.427 1.056-2.721.019-3.455-1.066-.752-1.533-.434-2.702 1.846-.487.949-.978 1.793-1.104 1.898-.124.103-.081-1.754.093-4.072.173-2.317.218-4.379.099-4.523-.122-.146-.715-.168-1.32-.052-.965.188-1.184 1.179-1.778 8.062-.812 9.434-.326 13.97 1.771 16.487 1.005 1.207 1.61 2.568 1.894 4.268.226 1.346.35 2.555.268 2.623-.084.07-.589-.567-1.142-1.447a93.34 93.34 0 0 0-2.449-3.616c-1.224-1.713-4.027-7.383-5.012-10.141-.142-.393-.403-.848-.558-.974-.175-.141-.14-.362.085-.549.206-.172.221-.504.032-.731-.534-.642-.424-5.974.133-6.438.68-.566-.08-1.478-1.23-1.477-.63 0-.98.512-1.441 2.105-.331 1.138-.732 2.211-.87 2.333-.449.397.79 5.849 2.134 9.396 1.806 4.759 4.648 9.421 9.173 15.046 2.647 3.291 4.088 9.258 1.632 6.759a283.786 283.786 0 0 1-1.445-1.479c-.383-.396-1.409-1.32-2.32-2.095-1.003-.852-2.073-2.268-2.77-3.669-.965-1.945-1.287-2.298-2.17-2.378-1.625-.15-2.265 1.374-1.277 3.045.46.78 3.472 4.425 6.708 8.119l5.876 6.708-.367 3.243c-.312 2.773-.477 3.165-1.135 2.704-.436-.307-1.448-.805-2.334-1.154-.882-.346-2.113-1.052-2.817-1.616-.705-.564-1.65-.994-2.161-.982-.501.011-1.091-.197-1.316-.467-.457-.548-6.179-.36-8.276.271-4.293 1.291-12.582 6.771-14.505 9.591-.913 1.339-1.729 2.225-5.703 6.199-2.676 2.679-6.368 8.39-9.02 13.954-.953 2.002-1.889 3.753-2.098 3.927-.207.173-.528 1.016-.71 1.871-.184.854-.64 1.81-1.014 2.122-.376.313-.64.816-.59 1.13.047.312-.254.851-.668 1.196-1.207 1.006-10.326 22.841-9.82 23.517.322.435.28.504-.157.26-.48-.268-.633-.145-.77.608-.201 1.092-.581 2.145-2.18 6.055a97.6 97.6 0 0 0-2.056 5.589c-.502 1.546-1.104 3.187-1.369 3.73-.26.535-.99 2.567-1.635 4.557-.645 1.988-1.535 4.512-1.998 5.658-1.836 4.55-3.507 10.686-2.964 10.873.311.107.287.223-.057.272-.333.047-1.318 2.175-2.214 4.783-.895 2.608-1.815 5.21-2.066 5.844-.247.624-.74 2.719-1.083 4.609-.343 1.889-.765 4.071-.926 4.798-.162.727-.133 1.545.063 1.801.188.246.105.857-.174 1.289-.47.725-.2 3.049.476 4.084.145.228.729 1.246 1.288 2.25.83 1.501 1.442 2.025 3.345 2.869 1.302.576 2.816.922 3.434.782.591-.131 1.468-.235 1.89-.222 2.296.071 2.829-.033 3.633-.703.492-.409 1.128-.733 1.391-.711.825.075 1.895-.637 7.235-4.816 3.596-2.817 5.96-4.993 7.596-6.993 1.297-1.588 3.229-3.617 4.262-4.477 1.055-.879 2.225-2.008 2.656-2.565.429-.549 1.463-1.697 2.327-2.577.854-.867 3.283-3.5 5.376-5.823 3.827-4.247 5.29-5.697 9.971-9.895 1.428-1.28 2.932-2.839 3.397-3.518.817-1.196 6.508-6.616 12.51-11.917 1.618-1.431 3.454-3.198 4.076-3.928.617-.724 2.009-2.191 3.062-3.228 2.915-2.87 6.764-7.219 6.98-7.889.112-.346.505-.927.915-1.355 1.336-1.389 8.348-11.158 9.29-12.942.496-.939.996-2.169 1.09-2.681.095-.516.72-1.743 1.381-2.716.662-.971 1.35-2.888 1.52-4.238.167-1.33.47-2.45.658-2.433.784.071.99-2.038.475-4.869-.303-1.665-.417-3.167-.253-3.303.164-.137-.053-1.618-.477-3.247-1.273-4.883-6.103-13.264-8.512-14.767-1.58-.986-2.073-2.172-1.205-2.896.792-.66 2.813-1.248 3.536-1.028.253.076 1.454-.039 2.74-.263 2.956-.514 10.717-.23 11.64.429 1.426 1.017 3.875-1.245 2.8-2.586-.473-.586-11.249-1.069-15.273-.683-2.035.195-.924-.648 2.663-2.02 3.587-1.372 7.081-2.153 10.127-2.268 1.303-.047 3.18-.326 4.068-.601.89-.276 3.054-.4 4.696-.27 1.644.132 3.212.107 3.406-.055.193-.16.093-.844-.217-1.481-.706-1.454-2.285-1.791-4.931-1.056-1.016.283-3.033.54-4.419.566-1.384.025-3.436.207-4.494.398-4.888.882-5.538.947-5.845.579-.357-.43 1.282-2.219 4.452-4.859 1.263-1.052 2.915-1.757 5.732-2.442 2.178-.531 4.078-1.064 4.222-1.185.144-.119 1.187-.263 2.296-.314 1.107-.051 2.185-.221 2.371-.376.187-.156 1.68-.247 3.312-.203 1.635.042 3.128-.049 3.314-.205.186-.154 1.921-.225 3.833-.157 1.928.071 4.995-.063 6.845-.299 2.829-.361 3.351-.565 3.352-1.322.005-1.557-1.229-2.036-4.031-1.564-1.458.244-3.35.415-4.132.373-.803-.043-1.564.026-1.722.158-.152.126-1.614.211-3.173.18-1.558-.028-3.898.094-5.08.27-1.196.177-3.009.335-3.99.352-.996.016-3.112.366-4.743.786-2.473.64-2.865.613-2.437-.164.817-1.479 1.452-1.86 3.575-2.151 1.09-.149 2.21-.384 2.448-.513.246-.132 2.537-.792 5.158-1.483 2.62-.691 4.904-1.358 5.14-1.501.236-.144 1.84-.515 3.614-.838 1.777-.324 3.292-.665 3.418-.77.125-.104 1.008-.25 1.965-.326.96-.076 1.648-.248 1.535-.385-.11-.131.176-.249.618-.254 1.169-.014 6.631-1.784 8.153-2.642.718-.404 2.558-1.303 4.088-1.998 1.529-.694 3.314-1.661 3.961-2.149.984-.739 1.06-1.068.46-1.981-.67-1.017-.898-1.001-3.316.239a509.089 509.089 0 0 0-2.818 1.452c-.118.063-.934.488-1.783.927-3.083 1.592-7.509 3.181-8.393 3.011-.46-.09-1.174.084-1.513.367-.352.293-2.117.758-3.93 1.036-1.814.276-3.541.713-3.853.973-.312.259-1.285.492-2.158.518-.873.027-1.803.223-2.063.44-.25.208-.902.305-1.396.205-.511-.106-1.32.14-1.81.548-.492.409-1.167.643-1.514.524-.442-.15-.305-.366.47-.742.598-.289 2.462-1.492 4.114-2.655 4.711-3.322 5.745-3.892 7.404-4.079 3.431-.389 10.488-2.829 13.941-4.823a64.234 64.234 0 0 1 2.635-1.439c4.229-2.137 12.265-7.264 15.442-9.854.303-.246.919-.475 1.318-.488.985-.031 1.706-1.252 1.14-1.932-.23-.276-.84-.579-1.392-.696Z"
  />
  <path
    d="M39.58 238.953c-2.993-.263-6.094-1.984-7.986-4.437-.928-1.206-1.848-2.101-2.012-1.965-.79.658-.244 2.824 1.306 5.176 1.63 2.476 1.772 2.573 4.342 3.061 1.437.273 3.427.831 4.336 1.215 1.27.539 1.855.514 2.408-.099 1.032-1.14-.287-2.766-2.395-2.951ZM42.6 251.248c-1.038.061-2.003.249-2.227.435-.212.177-.617.066-.867-.235-.448-.537-6.899-2.07-8.126-1.929-.286.032-.65-.318-.797-.769-.183-.551-.464-.667-.841-.353-.733.61.426 1.498 3.518 2.694 5.447 2.109 10.358 3.003 11.459 2.087 1.15-.959-.045-2.047-2.12-1.93ZM27.356 238.241c-.6.499-3.407-1.062-5.753-3.198-3.262-2.971-4.45-4.832-5.597-8.76-.161-.56-.837-1.604-1.474-2.286-.94-1.008-1.362-1.144-2.105-.688-1.077.661-.796 2.592.774 5.31l1.74 3.026c3.414 5.975 11.388 11.315 13.34 8.935.603-.735-.253-2.899-.925-2.339ZM21.639 244.576c-.778-.063-1.853-.542-2.484-1.103a192.95 192.95 0 0 0-2.44-2.122 38.715 38.715 0 0 1-2.628-2.541c-.7-.759-1.567-1.305-1.877-1.183-.92.359 4.454 6.642 7.023 8.211 2.342 1.433 3.51 1.567 4.109.475.542-.991-.055-1.601-1.703-1.737ZM29.759 270.942c-.33-.172-.77-.19-.954-.036-.508.423-3.34.033-5.006-.69a53.414 53.414 0 0 0-3.373-1.278c-1.048-.354-3.343-1.562-5.078-2.674-3.47-2.221-4.73-2.251-2.242-.05 4.131 3.653 11.761 7.699 15.058 7.988 1.379.119 1.924-.077 2.362-.848.555-.974.27-1.87-.767-2.412ZM15.972 256.031c-.41-.193-1.698-.665-2.904-1.066s-2.346-.868-2.572-1.054c-.22-.184-1.541-1.111-2.931-2.063-1.39-.951-3.178-2.338-3.974-3.081-.795-.744-1.566-1.368-1.712-1.385-1.538-.182 2.714 4.897 6.271 7.494l4.21 3.075c.86.628 1.586 1.365 1.63 1.648.144.989 1.988-.335 2.419-1.737.24-.785.401-1.42.362-1.444a27.767 27.767 0 0 0-.8-.387ZM19.252 277.584c-.37-.216-1.833-.965-3.23-1.655-1.397-.69-2.689-1.424-2.853-1.62-.178-.214-.425-.252-.618-.091-.178.149-1.284-.4-2.502-1.239-2.475-1.709-4.06-1.683-2.036.033.685.58 1.9 1.486 2.67 1.995.772.508 1.773 1.272 2.201 1.682.435.417 1.633 1.325 2.691 2.04 1.058.717 2.217 1.598 2.608 1.982.388.381.836.798.996.928.165.133.784-.172 1.425-.706.982-.818 1.011-1.078.23-1.951-.492-.549-1.21-1.184-1.582-1.398ZM1.586 266.416c-1.302-.166-4.138-2.306-6.199-4.68-2.094-2.41-3.18-2.712-2.247-.62 1.708 3.818 7.59 8.569 9.077 7.33.792-.66.406-1.902-.631-2.03Z"
  />
</svg>
