<svg width="70" height="70" viewBox="0 0 70 70" fill="none" xmlns="http://www.w3.org/2000/svg">
<style>
  #plate-outer,
  #plate-inner {
    fill: #131316;
  }
  @media (prefers-color-scheme: dark) {
    #plate-outer,
    #plate-inner {
      fill: #D4D4D8;
    }
  }
</style>
<path fill-rule="evenodd" clip-rule="evenodd" d="M50.9841 15.2505C46.5101 12 40.1281 12 35 12C29.8719 12 23.4899 12 19.0159 15.2505C17.571 16.3003 16.3003 17.571 15.2505 19.0159C12 23.4899 12 29.8719 12 35C12 40.1281 12 46.5101 15.2505 50.9841C16.3003 52.429 17.571 53.6997 19.0159 54.7495C23.4899 58 29.8719 58 35 58C40.1281 58 46.5101 58 50.9841 54.7495C52.429 53.6997 53.6997 52.429 54.7495 50.9841C58 46.5101 58 40.1281 58 35C58 29.8719 58 23.4899 54.7495 19.0159C53.6997 17.571 52.429 16.3003 50.9841 15.2505ZM36.9996 51.9882C35.8951 52.0072 35 51.1046 35 50C35 48.8954 35.8957 48.0119 36.9998 47.9804C39.4356 47.9108 42.0628 47.5952 44.0345 46.1627C44.8512 45.5694 45.5694 44.8512 46.1627 44.0345C47.5952 42.0628 47.9108 39.4356 47.9804 36.9998C48.0119 35.8957 48.8954 35 50 35C51.1046 35 52.0072 35.8951 51.9882 36.9996C51.9307 40.3516 51.592 44.069 49.5974 46.8143C48.8215 47.8823 47.8823 48.8215 46.8143 49.5974C44.069 51.592 40.3516 51.9307 36.9996 51.9882Z" id="plate-inner"/>
<path fill-rule="evenodd" clip-rule="evenodd" d="M35 0C42.8036 0 52.5154 0 59.3236 4.94646C61.5224 6.54396 63.4561 8.47758 65.0535 10.6764C70 17.4846 70 27.1964 70 35C70 42.8036 70 52.5154 65.0535 59.3236C63.4561 61.5224 61.5224 63.456 59.3236 65.0535C52.5154 70 42.8036 70 35 70C27.1964 70 17.4846 70 10.6764 65.0535C8.47758 63.456 6.54396 61.5224 4.94646 59.3236C0 52.5154 0 42.8036 0 35C0 27.1964 0 17.4846 4.94646 10.6764C6.54396 8.47758 8.47758 6.54396 10.6764 4.94646C17.4846 0 27.1964 0 35 0ZM35 8C41.0199 8 48.5119 8 53.7639 11.8158C55.4601 13.0482 56.9518 14.5399 58.1842 16.2361C62 21.4881 62 28.9801 62 35C62 41.0199 62 48.5119 58.1842 53.7639C56.9518 55.4601 55.4601 56.9518 53.7639 58.1842C48.5119 62 41.0199 62 35 62C28.9801 62 21.4881 62 16.2361 58.1842C14.5399 56.9518 13.0482 55.4601 11.8158 53.7639C8 48.5119 8 41.0199 8 35C8 28.9801 8 21.4881 11.8158 16.2361C13.0482 14.5399 14.5399 13.0482 16.2361 11.8158C21.4881 8 28.9801 8 35 8Z" id="plate-outer"/>
</svg>
